<svg width="45" height="45" fill="none" xmlns="http://www.w3.org/2000/svg"><path d="M15.688 39.828l15.796-15.75c.188-.187.32-.39.398-.61.079-.218.118-.452.118-.702 0-.25-.04-.485-.118-.703a1.635 1.635 0 00-.398-.61L15.687 5.656C15.25 5.22 14.704 5 14.047 5c-.656 0-1.219.234-1.688.703-.468.469-.703 1.016-.703 1.64 0 .626.235 1.173.703 1.641l13.782 13.782-13.782 13.78c-.437.438-.656.977-.656 1.617 0 .641.235 1.196.703 1.665.469.469 1.016.703 1.64.703.626 0 1.173-.234 1.642-.703z" fill="#F8E4BE"/></svg>