<svg width="60" height="36" fill="none" xmlns="http://www.w3.org/2000/svg"><path d="M58.379 1.243A3.794 3.794 0 0055.589 0H11.833a3.795 3.795 0 00-2.79 1.243 4.688 4.688 0 00-1.22 3.244 9.465 9.465 0 00-.819 18.462c.986.288 2.008.436 3.036.439a11.466 11.466 0 003.72-.655 30.95 30.95 0 002.091 2.746 25.687 25.687 0 009.116 6.86h-6.385a1.778 1.778 0 000 3.557h30.293a1.778 1.778 0 100-3.557h-6.48a25.599 25.599 0 009.107-6.86c4.696-5.447 7.56-12.8 8.066-20.702a4.747 4.747 0 00-1.19-3.534zM7.928 19.518a5.916 5.916 0 01.245-11.474 36.217 36.217 0 003.72 11.541 7.442 7.442 0 01-3.965-.067zm25.776 10.21c-11.117 0-20.538-11.088-21.446-25.234H55.15c-.52 13.67-10.32 25.233-21.438 25.233h-.007z" fill="#4E3D33"/><path d="M33.462 28.2c-5.075 0-9.92-2.455-13.64-6.912A28.083 28.083 0 0114.04 8.83 1.49 1.49 0 0115.528 7h35.874a1.489 1.489 0 011.488 1.83 28.165 28.165 0 01-5.781 12.457C43.388 25.745 38.544 28.2 33.46 28.2z" fill="#fff"/><path d="M18 19c.608 1.023 1.286 2 2.027 2.925C23.701 26.495 28.483 29 33.5 29c5.017 0 9.8-2.513 13.472-7.075A25.454 25.454 0 0049 19H18z" fill="#4E3D33"/><path d="M18.108 19h30.784A26.996 26.996 0 0052 12H15a26.996 26.996 0 003.108 7z" fill="#FFE6CF"/></svg>