<svg width="28" height="27" fill="none" xmlns="http://www.w3.org/2000/svg"><path d="M13.98 0c3.571 0 4.017.013 5.417.078 1.4.066 2.353.286 3.191.611a6.408 6.408 0 012.33 1.516 6.452 6.452 0 011.515 2.329c.324.837.545 1.79.61 3.19.062 1.401.08 1.847.08 5.418 0 3.57-.014 4.016-.08 5.417-.065 1.4-.286 2.352-.61 3.19a6.418 6.418 0 01-1.516 2.33 6.46 6.46 0 01-2.329 1.515c-.837.325-1.79.545-3.19.611-1.401.062-1.847.079-5.418.079-3.57 0-4.016-.013-5.417-.079-1.4-.066-2.352-.286-3.19-.611a6.428 6.428 0 01-2.33-1.515 6.445 6.445 0 01-1.515-2.33c-.326-.836-.545-1.79-.611-3.19-.062-1.401-.079-1.847-.079-5.417 0-3.571.013-4.017.079-5.417.066-1.401.285-2.353.611-3.191a6.413 6.413 0 011.515-2.33A6.436 6.436 0 015.373.69C6.21.364 7.161.144 8.562.08 9.963.018 10.408 0 13.979 0zm0 6.57a6.571 6.571 0 100 13.143 6.571 6.571 0 000-13.142zm8.543-.328a1.643 1.643 0 10-3.286 0 1.643 1.643 0 003.286 0zM13.98 9.2a3.943 3.943 0 110 7.886 3.943 3.943 0 010-7.886z" fill="#FFF3E0"/></svg>