<svg width="26" height="27" fill="none" xmlns="http://www.w3.org/2000/svg"><path fill-rule="evenodd" clip-rule="evenodd" d="M3.703.182A3.703 3.703 0 000 3.885v18.514A3.703 3.703 0 003.703 26.1h18.514a3.703 3.703 0 003.702-3.702V3.885A3.703 3.703 0 0022.216.182H3.703zm2.04 7.955a2.212 2.212 0 100-4.424 2.212 2.212 0 000 4.424zm1.851 13.915V9.872H3.892v12.18h3.702zm2.459-12.18h3.703v1.631c.546-.855 1.746-2.007 3.977-2.007 2.662 0 4.108 1.765 4.108 5.121 0 .161.014.896.014.896v6.538h-3.702v-6.536c0-.898-.19-2.662-2.185-2.662-1.998 0-2.166 2.218-2.212 3.67v5.528h-3.703V9.872z" fill="#FFF3E0"/></svg>