<svg width="24" height="24" fill="none" xmlns="http://www.w3.org/2000/svg"><path d="M12 12a1.93 1.93 0 001.413-.588c.391-.392.587-.863.587-1.412a1.93 1.93 0 00-.587-1.413A1.928 1.928 0 0012 8c-.55 0-1.02.195-1.412.587A1.927 1.927 0 0010 10c0 .55.196 1.02.588 1.412.391.391.862.587 1.412.587zm0 9.625c-.133 0-.267-.026-.4-.076a1.2 1.2 0 01-.35-.2C8.817 19.2 7 17.204 5.8 15.363 4.6 13.52 4 11.8 4 10.2c0-2.5.804-4.492 2.413-5.975C8.021 2.74 9.883 2 12 2c2.117 0 3.979.741 5.587 2.225C19.196 5.708 20 7.7 20 10.2c0 1.6-.6 3.32-1.8 5.163-1.2 1.84-3.017 3.837-5.45 5.986a1.2 1.2 0 01-.35.2c-.133.05-.267.076-.4.076z" fill="#FFF3E0"/></svg>