<svg width="27" height="27" fill="none" xmlns="http://www.w3.org/2000/svg"><path d="M26.838 2.96v20.364a2.778 2.778 0 01-2.777 2.777H9.852c.567-.949 1.296-2.314 1.585-3.43l.885-3.38c.463.886 1.817 1.632 3.258 1.632 4.287 0 7.37-3.94 7.37-8.834 0-4.692-3.83-8.204-8.759-8.204-6.133 0-9.384 4.114-9.384 8.597 0 2.083 1.11 4.675 2.881 5.502.272.127.411.07.475-.19.046-.198.289-1.164.393-1.61a.42.42 0 00-.098-.404c-.585-.712-1.06-2.02-1.06-3.24 0-3.136 2.373-6.167 6.417-6.167 3.489 0 5.936 2.378 5.936 5.78 0 3.841-1.938 6.502-4.467 6.502-1.394 0-2.435-1.151-2.105-2.569.399-1.689 1.174-3.511 1.174-4.732 0-3.066-4.368-2.644-4.368 1.446 0 1.256.422 2.112.422 2.112-1.816 7.683-2.088 7.781-1.712 11.143l.127.046H3.696A2.778 2.778 0 01.92 23.324V2.96A2.778 2.778 0 013.696.182h20.365a2.778 2.778 0 012.777 2.777z" fill="#FFF3E0"/></svg>