<?xml version="1.0" standalone="no"?>
<!DOCTYPE svg PUBLIC "-//W3C//DTD SVG 20010904//EN"
 "http://www.w3.org/TR/2001/REC-SVG-20010904/DTD/svg10.dtd">
<svg version="1.0" xmlns="http://www.w3.org/2000/svg"
 width="1280.000000pt" height="909.000000pt" viewBox="0 0 1280.000000 909.000000"
 preserveAspectRatio="xMidYMid meet">
<metadata>
Created by potrace 1.15, written by Peter Selinger 2001-2017
</metadata>
<g transform="translate(0.000000,909.000000) scale(0.100000,-0.100000)"
fill="#f44336" stroke="none">
<path d="M4783 8006 c-306 -59 -607 -265 -811 -556 -25 -36 -49 -69 -53 -73
-3 -5 -21 -1 -39 8 -37 19 -104 14 -136 -10 -18 -13 -17 -15 16 -50 l35 -36
-28 -21 c-33 -24 -49 -58 -36 -74 10 -13 -28 -94 -45 -94 -5 0 -17 -6 -25 -14
-9 -7 -34 -18 -56 -24 -22 -6 -50 -14 -63 -18 -13 -3 -22 -3 -21 2 4 21 -2 34
-15 34 -19 0 -27 -25 -13 -39 16 -16 -61 -83 -83 -74 -8 4 -34 8 -56 11 -35 3
-47 -1 -77 -28 -72 -63 -73 -149 -3 -227 53 -59 61 -82 41 -119 -8 -16 -15
-35 -15 -42 0 -30 31 -70 67 -85 21 -8 55 -33 77 -55 l38 -40 -11 -51 c-14
-67 -14 -202 0 -274 11 -52 10 -58 -12 -85 -13 -17 -32 -32 -42 -35 -17 -5
-17 -7 3 -27 15 -15 19 -25 12 -32 -14 -14 -48 -5 -43 13 2 8 6 44 8 80 6 70
-5 118 -36 158 -17 22 -19 22 -48 8 -16 -9 -36 -24 -44 -33 -12 -15 -12 -16 0
-9 10 5 12 4 7 -4 -4 -6 -12 -9 -17 -6 -7 5 -43 -42 -52 -69 -2 -6 -20 3 -40
18 -42 32 -122 59 -151 50 -17 -4 -18 -3 -6 5 13 9 13 11 -2 11 -27 0 -38 -32
-38 -107 0 -53 5 -77 24 -110 l24 -42 -36 -12 c-21 -6 -55 -22 -78 -35 -22
-13 -62 -27 -87 -30 -60 -8 -62 -29 -9 -99 55 -74 131 -108 233 -106 l77 1 15
-38 c8 -20 31 -52 50 -70 29 -29 38 -32 55 -23 42 22 91 93 102 145 l11 52 48
-15 48 -16 7 -174 c3 -96 9 -198 12 -227 6 -47 5 -54 -11 -54 -20 0 -16 -30
15 -95 11 -22 21 -56 22 -75 3 -32 1 -35 -26 -38 -22 -3 -34 3 -48 20 -17 22
-18 22 -18 2 0 -11 13 -30 30 -42 32 -24 51 -28 48 -10 -2 6 4 13 13 15 9 2
16 -2 17 -9 1 -19 58 -226 76 -275 13 -37 13 -43 0 -54 -12 -10 -19 -8 -37 8
-44 40 -137 55 -187 30 -13 -7 -35 -28 -48 -47 -49 -72 -8 -180 86 -225 38
-18 41 -23 42 -59 1 -143 100 -323 238 -437 78 -64 230 -138 283 -139 9 0 28
-24 45 -57 19 -38 46 -70 78 -94 26 -20 56 -49 67 -65 37 -57 15 -149 -33
-137 -13 3 -20 2 -16 -2 8 -9 -27 -63 -54 -83 -23 -17 -23 -41 1 -50 10 -4 39
-30 64 -57 l45 -51 -20 -24 c-11 -14 -27 -24 -34 -22 -17 4 -19 -15 -1 -21 9
-3 9 -8 1 -17 -9 -9 -17 -9 -32 -1 -25 13 -72 14 -91 2 -8 -5 5 -7 35 -4 38 3
46 2 34 -7 -12 -9 -11 -10 8 -5 19 6 25 0 43 -40 28 -63 66 -118 91 -131 12
-6 23 -22 25 -34 2 -13 15 -50 30 -82 38 -86 135 -161 251 -194 8 -2 12 -23
12 -57 0 -37 8 -68 24 -100 l23 -47 -26 -7 c-14 -3 -51 -18 -81 -34 -30 -15
-74 -30 -97 -34 -63 -10 -57 -41 26 -128 54 -57 111 -79 203 -78 l77 1 19 -43
c11 -23 33 -55 50 -71 l31 -29 30 19 c45 29 88 95 96 147 l7 45 45 -15 c62
-21 127 -8 131 27 6 41 -16 95 -59 144 l-42 47 29 -7 c95 -23 126 -42 224
-132 64 -60 177 -128 271 -166 72 -28 224 -56 264 -48 41 7 31 38 -19 61 -55
24 -125 88 -165 150 -31 48 -57 109 -49 116 2 2 26 -7 53 -20 26 -14 65 -25
85 -25 32 0 44 -7 81 -48 74 -79 299 -378 299 -397 0 -5 -14 12 -32 36 -18 25
-33 38 -36 31 -7 -21 7 -61 30 -84 37 -37 22 -137 -30 -191 -43 -45 -142 -60
-142 -22 0 9 -6 12 -15 9 -13 -5 -13 -2 1 23 28 48 14 77 -43 90 -53 13 -62
10 -47 -14 14 -23 34 -28 34 -9 0 9 5 16 10 16 6 0 10 -7 10 -15 0 -9 7 -18
15 -21 8 -4 15 -16 15 -29 0 -13 -7 -25 -15 -29 -9 -3 -15 0 -15 7 0 7 -7 22
-15 33 -15 18 -15 18 -9 -8 8 -36 -17 -38 -44 -4 -27 35 -63 42 -87 16 -16
-18 -20 -19 -35 -5 -13 11 -27 13 -70 6 -30 -5 -57 -7 -59 -5 -2 2 -11 -6 -20
-17 -9 -11 -27 -25 -41 -32 -35 -18 -36 -43 -3 -75 16 -15 39 -42 52 -60 35
-50 73 -65 150 -60 63 5 65 5 36 -9 -24 -11 -25 -13 -5 -7 14 3 43 6 66 5 50
-2 69 16 62 62 -5 28 -1 35 29 55 26 17 49 22 97 22 57 0 66 3 102 34 40 34
64 86 64 139 0 32 9 57 21 57 11 0 103 -141 156 -236 22 -41 32 -70 28 -83 -4
-14 1 -27 17 -41 13 -11 30 -27 38 -35 19 -17 94 -182 131 -290 16 -44 32 -81
37 -83 4 -1 16 24 26 55 10 32 35 94 55 138 l37 80 51 -3 c29 -2 77 3 109 13
l57 17 24 -30 c13 -17 44 -38 68 -48 58 -22 110 -8 159 41 48 48 64 118 41
186 -9 28 -15 52 -13 53 2 2 18 13 36 25 48 33 72 88 72 163 -1 70 -14 101
-72 168 -30 34 -42 42 -63 38 -26 -5 -45 14 -45 45 0 7 33 58 74 113 145 194
343 422 538 617 171 172 201 197 220 191 13 -3 26 -12 30 -19 4 -7 19 -16 33
-19 26 -7 51 -49 39 -67 -3 -5 0 -9 5 -9 16 0 13 -51 -4 -80 l-15 -25 2 25 c2
14 -1 25 -7 25 -6 0 -10 -28 -9 -67 1 -51 8 -81 28 -121 14 -30 26 -57 26 -61
0 -15 -60 26 -61 42 0 11 -2 12 -6 4 -3 -7 1 -27 8 -43 10 -25 16 -29 36 -25
14 4 33 0 48 -10 19 -13 31 -14 55 -6 16 6 45 8 64 5 74 -12 196 78 218 160 7
29 21 53 35 63 13 8 21 19 18 24 -4 6 1 20 9 32 23 32 20 90 -5 122 -24 30
-82 58 -104 50 -8 -3 -34 10 -58 30 -61 50 -109 68 -202 75 l-80 6 80 67 c66
55 82 64 91 52 19 -24 34 -16 34 19 0 27 9 42 46 76 33 32 51 42 67 38 12 -3
42 -11 67 -17 25 -7 68 -9 97 -7 51 5 52 5 68 -31 20 -44 73 -102 92 -102 38
0 105 78 119 137 14 66 10 62 66 48 55 -15 101 -11 119 11 18 22 -8 98 -53
155 -21 27 -37 49 -34 49 2 0 33 -9 69 -20 52 -16 79 -33 138 -87 164 -148
329 -225 512 -240 77 -6 77 -6 77 19 0 18 -8 27 -34 36 -52 19 -114 73 -162
142 -38 54 -70 127 -61 137 2 1 20 -9 42 -24 29 -20 55 -27 106 -31 67 -5 68
-4 75 23 4 15 2 48 -4 74 -12 51 -5 61 39 61 14 0 34 9 44 20 10 11 23 20 29
20 19 0 78 80 72 96 -3 8 -28 28 -55 45 -49 30 -49 32 -32 51 10 10 28 48 40
83 19 60 20 70 8 127 -15 71 -35 114 -66 142 -27 24 -47 15 -55 -24 -8 -40
-47 -77 -126 -119 -34 -18 -77 -46 -96 -63 l-34 -30 -40 35 c-41 35 -135 72
-167 65 -12 -2 -17 -11 -15 -23 2 -11 7 -54 11 -96 5 -53 15 -89 33 -122 l27
-47 -33 -14 c-40 -17 -86 -70 -86 -101 0 -47 96 -106 176 -108 l53 -2 15 -56
c22 -77 77 -166 138 -222 l52 -47 -34 5 c-107 19 -256 84 -352 155 -99 74
-212 254 -225 359 -9 80 29 181 108 287 88 118 187 281 249 410 42 87 52 102
77 107 15 3 36 1 46 -5 31 -16 67 -1 82 36 21 50 39 61 67 42 28 -20 52 -20
67 -2 6 8 32 17 56 21 37 5 46 11 51 31 5 18 0 32 -15 48 -19 20 -20 27 -10
49 15 34 -4 107 -36 137 l-23 22 -29 -43 c-15 -24 -31 -47 -34 -52 -3 -4 -21
6 -39 23 -18 17 -38 29 -44 27 -19 -6 -36 -51 -30 -79 4 -20 0 -29 -15 -37
-33 -18 -35 19 -7 137 25 104 48 237 61 354 5 49 10 59 28 62 141 29 204 60
282 140 96 99 145 224 145 371 0 96 -15 164 -55 247 -21 43 -21 46 -3 35 23
-15 41 7 31 38 -12 41 -44 44 -53 5 -6 -24 -6 -23 -34 13 -29 37 -27 53 7 78
18 13 0 45 -45 78 l-46 34 18 26 c45 64 50 212 11 289 -20 39 -57 82 -69 82
-5 0 -18 -22 -29 -50 -14 -32 -30 -53 -45 -59 -13 -5 -30 -16 -37 -25 -7 -9
-17 -13 -22 -10 -5 3 -9 0 -9 -5 0 -6 -5 -11 -11 -11 -14 0 -88 -56 -111 -84
-9 -11 -20 -18 -23 -14 -4 4 -21 58 -37 120 -16 62 -47 166 -68 232 l-39 119
51 53 c40 43 57 54 82 54 38 0 124 39 150 68 l18 21 39 -22 c38 -22 38 -22 52
-3 10 13 31 22 63 25 41 5 50 10 52 29 2 13 -5 37 -15 55 -15 24 -17 40 -11
62 18 67 -55 190 -77 128 -3 -10 -17 -31 -30 -46 l-25 -28 -31 25 c-17 14 -36
26 -44 26 -17 0 -39 -55 -31 -83 4 -16 0 -26 -14 -35 -28 -17 -25 -47 8 -72
l27 -22 -29 -23 c-29 -23 -74 -40 -82 -32 -2 2 3 20 11 40 18 43 20 131 3 177
-10 31 -9 35 15 55 26 20 36 62 20 78 -4 4 -7 30 -7 57 -1 33 -7 55 -19 67
-16 16 -18 16 -47 0 -27 -16 -32 -16 -59 -2 -35 18 -76 19 -120 4 -40 -14 -39
-35 5 -80 l36 -36 -32 -23 c-25 -18 -31 -28 -28 -54 3 -27 8 -32 43 -41 22 -5
53 -23 68 -39 l28 -28 25 23 c21 20 26 21 34 9 34 -54 -10 -173 -102 -273
l-53 -59 -38 89 c-197 452 -550 800 -921 907 -219 64 -415 59 -641 -15 -383
-126 -729 -468 -973 -961 -69 -142 -148 -331 -173 -418 -12 -45 -29 -75 -29
-52 0 23 -103 288 -158 407 -274 593 -652 968 -1091 1082 -120 31 -319 40
-428 19z m469 -146 c110 -35 227 -93 317 -158 96 -68 231 -192 266 -243 16
-24 56 -75 89 -113 142 -168 308 -489 427 -825 49 -139 91 -177 164 -147 36
15 44 31 90 164 254 739 731 1249 1235 1323 102 15 303 7 384 -15 390 -107
700 -419 916 -924 l23 -53 -49 -50 c-42 -43 -53 -49 -89 -49 -37 0 -43 3 -58
35 -10 22 -31 42 -53 52 -34 17 -35 19 -29 58 3 22 8 66 11 97 5 54 4 58 -29
94 -41 45 -89 51 -135 17 -26 -19 -29 -20 -39 -4 -9 13 -14 13 -24 4 -10 -10
-10 -17 1 -38 7 -14 10 -28 6 -32 -4 -4 -34 -8 -66 -8 -49 -1 -67 -6 -102 -31
-24 -16 -52 -48 -64 -72 -12 -23 -36 -55 -53 -71 -17 -16 -31 -39 -31 -51 0
-37 29 -80 68 -98 22 -10 42 -29 50 -47 12 -26 19 -31 53 -31 29 -1 48 -9 68
-28 32 -31 66 -34 83 -7 11 18 13 17 36 -10 19 -23 32 -29 66 -29 34 0 46 6
69 31 l28 32 23 -22 c12 -12 26 -18 29 -14 9 8 9 -20 1 -42 -6 -14 -8 -14 -26
1 -17 16 -20 16 -35 1 -15 -15 -15 -18 1 -41 9 -14 20 -26 24 -26 4 0 8 -57 8
-127 0 -139 12 -197 64 -305 22 -47 24 -58 11 -53 -9 4 -46 13 -82 21 l-65 15
9 54 c13 68 -4 154 -38 193 l-23 26 -41 -29 c-23 -16 -53 -48 -67 -71 l-25
-43 -42 28 c-23 16 -64 33 -92 40 -27 7 -58 14 -67 17 -35 10 -50 -118 -22
-191 28 -72 28 -75 6 -75 -11 0 -41 -12 -66 -26 -26 -15 -50 -24 -53 -20 -4 3
-1 6 5 6 18 0 14 25 -8 51 -20 24 -20 24 -35 5 -20 -26 -19 -32 5 -56 l20 -20
-21 0 c-11 0 -32 9 -46 20 -31 24 -39 24 -77 5 -15 -8 -42 -15 -58 -15 -59 0
-118 -57 -118 -113 0 -14 -4 -29 -10 -32 -15 -10 -12 -41 8 -64 19 -22 83 -30
136 -16 21 6 27 5 22 -4 -4 -6 -3 -11 3 -11 5 0 16 -3 25 -6 11 -4 19 2 26 20
11 29 28 34 36 11 9 -22 32 -18 59 11 l23 25 17 -28 16 -28 111 0 c109 1 111
0 121 -25 16 -38 76 -110 92 -110 20 0 82 38 88 54 3 8 22 17 41 20 23 4 42
16 53 33 14 21 22 24 54 20 20 -3 41 -1 46 4 13 13 71 -21 107 -63 47 -54 63
-117 46 -177 -7 -25 -15 -59 -18 -76 -2 -16 -15 -45 -29 -63 -22 -29 -28 -32
-61 -26 -20 3 -60 17 -89 30 -63 29 -88 30 -130 4 -46 -28 -67 -73 -60 -131 9
-71 2 -86 -44 -92 -73 -10 -129 -68 -129 -136 0 -45 41 -114 84 -139 24 -14
36 -30 41 -54 9 -38 50 -125 73 -150 14 -17 13 -18 -7 -18 -29 0 -70 -22 -100
-54 -31 -33 -41 -119 -18 -163 16 -31 84 -97 108 -105 10 -3 7 -13 -14 -37
-38 -46 -37 -91 4 -125 39 -33 99 -37 99 -6 0 16 -7 20 -34 20 -44 0 -63 22
-48 55 7 14 24 30 38 36 37 13 69 -17 91 -87 l16 -52 -32 -50 c-64 -100 -160
-170 -280 -206 -74 -22 -223 -22 -257 0 -18 12 -34 15 -62 9 -20 -4 -64 -8
-97 -9 -67 -3 -131 -31 -163 -71 -19 -24 -20 -24 -33 -5 -10 14 -18 17 -29 11
-12 -8 -10 -13 9 -31 14 -11 21 -23 18 -26 -3 -4 -13 1 -22 10 -9 9 -20 16
-25 16 -19 0 -40 -13 -40 -25 0 -7 -12 -16 -27 -19 -16 -4 -35 -9 -44 -12 -30
-9 -31 31 -3 100 6 15 4 17 -6 11 -9 -5 -11 -4 -6 4 4 6 11 9 16 6 18 -11 32
37 26 84 -4 25 -8 54 -9 64 -1 9 -7 17 -13 17 -14 0 -74 66 -74 80 0 16 -36
11 -51 -6 -11 -14 -14 -13 -25 8 -18 31 -17 51 3 93 17 35 16 37 -9 88 -25 52
-27 53 -68 52 -34 -1 -45 -5 -51 -22 -4 -12 -18 -27 -29 -33 -12 -6 -19 -14
-16 -18 4 -3 20 4 36 17 33 24 39 18 13 -13 -14 -16 -15 -18 -2 -8 9 7 24 10
33 6 9 -3 16 -1 16 5 0 6 -6 11 -12 12 -10 0 -10 2 -1 5 7 3 9 12 6 20 -9 24
12 16 42 -16 27 -29 28 -32 16 -63 -7 -17 -15 -43 -18 -57 -2 -14 -9 -35 -15
-47 -15 -31 14 -77 43 -68 14 5 28 0 44 -15 17 -16 31 -21 48 -16 30 7 54 -17
63 -62 5 -23 -2 -47 -26 -97 -27 -56 -31 -73 -25 -110 6 -41 4 -46 -17 -54
-13 -5 -49 -32 -81 -60 -68 -60 -88 -62 -152 -22 -114 72 -239 63 -343 -24
-16 -14 -35 -25 -41 -25 -6 0 -19 17 -30 39 -26 50 -47 58 -83 31 -25 -19 -37
-20 -98 -14 -67 6 -70 8 -70 33 0 49 49 130 102 168 58 42 96 102 105 169 3
27 13 54 22 60 13 10 12 15 -10 35 -36 35 -50 74 -43 118 11 70 -33 121 -93
107 -16 -5 -22 -3 -18 3 3 6 -3 32 -14 57 -24 53 -25 58 -11 49 6 -3 10 -2 10
4 0 5 14 22 31 38 56 51 80 98 73 143 -4 26 -2 45 6 55 13 16 7 60 -12 82 -13
16 -54 17 -64 2 -3 -6 -14 2 -25 21 -28 46 -47 39 -79 -30 -10 -22 -103 -26
-120 -5 -7 8 -24 15 -38 15 -25 0 -62 -25 -62 -42 0 -4 9 1 20 12 25 25 35 25
67 0 14 -11 37 -20 50 -20 13 0 22 -4 18 -9 -9 -16 28 -18 58 -4 15 7 27 16
27 19 0 2 -9 0 -21 -6 -30 -17 -34 -6 -5 13 22 15 25 15 30 1 4 -10 16 -14 34
-13 22 3 36 -5 60 -33 18 -19 32 -43 32 -52 0 -28 -31 -80 -62 -105 -17 -13
-37 -39 -44 -58 -9 -21 -21 -33 -34 -33 -23 0 -50 -36 -50 -68 0 -39 37 -82
71 -82 23 0 29 -4 29 -20 0 -53 52 -107 91 -95 15 5 22 -1 34 -29 39 -92 3
-202 -86 -260 -52 -35 -96 -105 -110 -177 -9 -48 -15 -58 -34 -62 -13 -2 -30
0 -37 4 -7 5 -19 2 -28 -5 -8 -8 -30 -17 -49 -21 -94 -20 -225 -100 -308 -188
-54 -57 -133 -171 -133 -192 0 -7 -7 -18 -15 -25 -12 -10 -15 -10 -15 2 0 21
-35 50 -56 46 -10 -2 -25 -15 -33 -30 -14 -25 -14 -29 5 -55 12 -16 33 -29 48
-31 21 -3 26 -7 21 -20 -21 -54 -37 -184 -32 -264 l6 -86 -37 -15 c-35 -14
-38 -14 -46 4 -10 20 -21 24 -30 10 -3 -5 1 -14 9 -21 14 -12 13 -16 -8 -39
-14 -14 -32 -38 -42 -53 -21 -34 -52 -36 -110 -7 l-43 21 27 54 c20 40 32 53
49 53 43 2 70 49 63 108 -3 19 -54 68 -68 65 -7 -2 -21 14 -32 35 -35 68 -91
110 -91 68 0 -38 -40 -91 -92 -122 -70 -42 -107 -58 -115 -50 -3 4 -8 39 -11
80 -3 55 1 91 18 152 19 67 22 95 17 175 -3 52 -7 102 -9 111 -2 9 16 31 43
51 40 31 48 34 64 22 25 -18 59 -18 75 1 7 8 22 15 34 15 36 0 64 11 70 27 6
16 -23 73 -37 73 -4 0 -3 9 3 19 16 31 12 80 -12 122 -26 46 -42 49 -62 11 -8
-15 -23 -35 -33 -45 -19 -16 -21 -16 -43 8 -45 48 -86 25 -78 -44 2 -21 -4
-35 -22 -49 l-24 -19 33 -33 c37 -37 36 -48 -8 -73 -31 -18 -31 -18 -40 6 -5
13 -7 51 -4 84 3 35 1 75 -6 96 -11 32 -10 39 15 76 18 28 24 46 18 58 -4 10
-9 40 -9 66 -1 30 -8 55 -19 65 -16 16 -19 16 -47 0 -46 -27 -72 -9 -122 86
-30 60 -62 101 -121 159 -44 44 -90 83 -102 87 -20 8 -21 13 -17 74 5 60 3 71
-30 138 -29 58 -36 83 -34 123 1 31 7 50 14 50 7 0 18 7 25 16 24 30 62 49 78
39 26 -17 56 -11 79 16 18 20 28 24 51 19 62 -14 91 36 50 88 -11 14 -20 35
-20 47 0 11 -6 33 -14 48 -24 49 -27 99 -6 124 11 13 19 17 20 11 0 -7 8 -13
19 -13 21 0 45 23 34 33 -3 4 -1 7 5 7 6 0 17 -8 24 -18 7 -10 20 -22 28 -26
37 -17 59 -33 55 -38 -3 -3 17 -3 45 0 43 4 52 1 70 -19 20 -23 20 -23 11 -2
-15 29 -28 36 -65 35 -46 -2 -86 19 -86 44 0 12 -9 32 -19 45 -19 23 -19 24
-40 5 -20 -18 -22 -18 -39 -3 -10 10 -26 17 -36 17 -17 0 -20 -5 -30 -52 -4
-15 -12 -33 -19 -40 -15 -13 -9 -67 11 -105 20 -36 14 -73 -14 -95 -14 -11
-23 -26 -20 -34 10 -25 -13 -25 -38 1 -34 34 -86 16 -86 -30 0 -16 -11 -30
-35 -45 -19 -12 -35 -26 -35 -31 0 -4 -6 -6 -12 -4 -8 3 -14 -4 -15 -17 -2
-13 -6 -45 -9 -71 -5 -41 -2 -58 24 -110 37 -75 43 -108 30 -156 -6 -20 -11
-37 -13 -39 -8 -9 -124 45 -147 69 -15 16 -34 29 -42 29 -9 0 -16 6 -16 13 0
19 -20 36 -36 30 -18 -7 -18 -27 1 -43 21 -17 19 -40 -4 -40 -12 0 -29 17 -45
45 -49 84 -130 127 -237 126 -39 0 -84 6 -105 15 -39 17 -85 11 -105 -12 -16
-20 -233 -20 -269 1 -14 8 -35 19 -47 24 -11 5 -24 14 -27 20 -11 16 -66 24
-82 10 -12 -9 -22 -8 -54 6 l-41 18 60 29 c69 33 114 82 139 151 14 40 20 47
38 43 24 -6 57 24 73 67 16 43 -3 104 -47 148 -34 33 -37 42 -37 91 0 45 -5
61 -29 92 -52 69 -129 85 -177 37 -29 -29 -30 -30 -70 -15 -23 7 -68 14 -100
14 l-59 0 0 63 c0 76 11 94 137 216 l87 83 35 -17 c101 -49 295 -95 340 -80
31 9 18 38 -27 60 -91 44 -192 163 -208 245 l-7 31 49 -26 c40 -21 60 -25 109
-23 l60 3 0 50 c-1 28 -3 58 -5 69 -4 15 4 21 41 32 50 15 149 98 149 126 0
15 -82 78 -102 78 -4 0 3 17 16 38 62 92 69 188 21 282 -27 53 -62 88 -74 74
-15 -16 -50 -103 -43 -107 4 -2 1 -2 -6 0 -7 1 -28 -8 -45 -21 -18 -13 -54
-35 -82 -49 -27 -14 -61 -37 -74 -51 l-25 -26 -28 27 c-20 19 -28 36 -28 62 0
22 -12 57 -31 89 -24 42 -40 58 -76 74 -24 11 -46 18 -48 16 -1 -1 -13 -43
-24 -93 -31 -125 -26 -116 -53 -102 -13 7 -28 15 -34 19 -8 6 -2 43 23 129 18
67 39 132 46 145 7 12 56 68 109 123 84 87 102 101 130 101 41 0 115 33 149
66 23 22 27 23 39 9 17 -20 70 -20 70 0 0 11 11 15 36 15 19 0 44 5 55 10 25
14 24 52 -1 75 -15 13 -17 22 -10 36 16 28 12 71 -10 114 -11 21 -18 41 -15
43 2 3 33 4 67 4 52 -1 65 -5 79 -23 17 -22 16 -24 -17 -63 -19 -22 -34 -47
-34 -56 0 -19 37 -56 46 -47 3 3 17 -6 29 -21 18 -20 26 -24 35 -16 16 16 -5
54 -30 54 -12 0 -25 13 -36 35 -16 34 -16 37 1 55 10 11 22 20 27 20 16 0 88
-83 88 -101 0 -37 94 -74 115 -46 11 15 13 14 25 -9 15 -28 56 -42 73 -25 6 6
25 11 41 11 24 0 27 -3 16 -10 -12 -8 -11 -10 7 -10 12 0 25 -4 28 -10 10 -15
28 -12 22 4 -3 8 -1 17 6 20 7 3 2 3 -10 0 -13 -3 -23 -1 -23 5 0 6 3 11 8 11
4 0 18 3 31 7 17 4 22 3 17 -5 -5 -8 5 -12 33 -12 32 0 44 5 56 24 15 22 15
28 1 61 -9 21 -16 48 -16 62 0 13 -9 40 -19 61 -35 68 -88 102 -158 102 -20 0
-45 8 -55 17 -23 21 -80 22 -103 3 -9 -8 -21 -24 -26 -37 -6 -17 -16 -23 -39
-23 -17 0 -45 -7 -62 -16 -30 -15 -36 -15 -82 1 -28 9 -62 22 -75 28 -19 9
-25 9 -28 0 -3 -7 -14 -13 -26 -13 -29 0 -118 -42 -136 -63 -7 -10 -24 -17
-37 -17 -25 0 -44 -26 -44 -59 0 -47 -55 -36 -77 17 -14 35 -14 36 17 65 21
20 29 35 25 46 -17 39 -14 50 24 106 63 95 163 206 253 282 134 113 235 172
385 223 85 29 94 30 280 30 187 0 196 -1 285 -30z m-482 -581 c0 -7 10 -9 25
-7 13 3 22 1 19 -3 -3 -5 3 -9 14 -9 28 0 72 -38 88 -76 18 -43 18 -64 -1 -64
-28 0 -67 -48 -60 -71 9 -28 -9 -39 -62 -39 -37 0 -44 4 -58 30 -11 21 -23 30
-43 32 -65 3 -80 5 -91 12 -21 14 17 44 59 48 32 3 41 0 51 -19 27 -51 87 -33
73 21 -3 15 -17 32 -29 38 -21 9 -22 12 -10 52 7 22 10 47 8 54 -3 6 0 12 6
12 6 0 11 -5 11 -11z m-995 -33 c-16 -13 -32 -22 -35 -19 -7 6 39 43 54 43 6
0 -2 -11 -19 -24z m467 -25 c-51 -17 -97 -49 -87 -59 3 -3 14 3 25 13 29 26
38 9 10 -20 -27 -28 -40 -32 -40 -10 0 8 -5 15 -11 15 -8 0 -8 4 1 15 17 20
110 65 134 65 12 -1 -3 -9 -32 -19z m-142 -55 c0 -2 -7 -9 -15 -16 -13 -11
-14 -10 -9 4 5 14 24 23 24 12z m-140 -93 c0 -12 -5 -25 -11 -29 -20 -12 -79
-22 -84 -15 -2 5 12 34 32 66 l37 59 13 -30 c6 -16 12 -39 13 -51z m-239 24
c-10 -9 -11 -8 -5 6 3 10 9 15 12 12 3 -3 0 -11 -7 -18z m5117 -23 c28 -20 33
-81 5 -68 -10 5 -42 8 -70 8 -57 -1 -67 11 -35 39 15 14 56 34 72 36 3 1 16
-6 28 -15z m-4731 -20 c-3 -3 -12 -4 -19 -1 -8 3 -5 6 6 6 11 1 17 -2 13 -5z
m-390 -49 c2 -1 -15 -50 -37 -108 -22 -59 -56 -161 -75 -227 -19 -66 -42 -135
-51 -152 l-17 -32 -22 51 c-26 57 -85 127 -127 149 -43 22 -34 84 13 84 10 0
27 12 39 28 18 22 21 36 17 74 -6 44 -4 49 30 79 60 52 109 70 173 63 30 -4
56 -7 57 -9z m4818 -7 c-11 -6 -29 -18 -40 -27 -12 -9 -8 -4 7 12 16 15 34 27
41 27 6 0 3 -6 -8 -12z m114 3 c17 -11 40 -90 41 -138 l0 -33 -21 21 c-25 25
-50 21 -65 -10 -14 -27 -9 -45 24 -86 l22 -28 25 28 c18 19 24 33 19 48 -4 14
3 10 25 -15 34 -39 44 -98 17 -98 -8 0 -18 5 -21 10 -4 6 -15 8 -26 5 -11 -4
-19 -2 -19 4 0 19 -56 12 -75 -9 -23 -25 -51 -25 -92 0 -37 22 -40 32 -17 51
20 16 14 82 -10 108 -22 24 -20 39 9 77 28 37 54 54 100 65 42 10 48 10 64 0z
m-4796 -46 c21 -20 37 -41 37 -48 0 -14 -130 -160 -137 -154 -2 3 9 40 26 83
17 44 31 96 33 117 1 20 3 37 4 37 0 0 17 -16 37 -35z m-463 -30 c0 -2 -12
-26 -26 -54 -26 -49 -48 -64 -57 -38 -3 9 -8 9 -16 1 -9 -8 -6 -18 12 -40 16
-19 22 -35 18 -47 -6 -18 -7 -18 -23 0 -20 21 -38 67 -38 93 0 26 56 88 83 92
21 4 47 0 47 -7z m20 -85 c-6 -12 -14 -19 -17 -17 -2 3 1 15 7 27 6 12 14 19
17 17 2 -3 -1 -15 -7 -27z m5789 -81 c7 -23 15 -48 18 -58 10 -25 -36 18 -53
50 -10 20 -10 29 -1 38 18 18 23 14 36 -30z m-21 -79 c48 -36 78 -80 87 -131
l7 -36 -48 5 -47 4 7 -28 c4 -16 10 -63 15 -104 4 -41 13 -85 19 -97 19 -34
15 -71 -8 -78 -31 -10 -70 -63 -70 -96 0 -53 80 -110 172 -123 46 -7 47 -8 52
-49 9 -73 16 -207 10 -207 -2 0 -34 14 -69 32 -227 110 -381 368 -362 601 8
95 23 135 50 139 19 3 22 10 24 52 1 37 10 60 35 97 40 59 65 63 126 19z
m-5736 -87 c27 -31 48 -81 55 -130 l6 -48 -23 16 c-13 8 -31 30 -41 49 -10 18
-22 36 -27 39 -15 10 -32 48 -32 70 0 27 40 29 62 4z m818 -97 c0 -3 -4 -8
-10 -11 -5 -3 -10 -1 -10 4 0 6 5 11 10 11 6 0 10 -2 10 -4z m-110 -131 c0 -2
-18 -14 -40 -25 -22 -11 -40 -18 -40 -15 0 2 17 13 38 24 42 23 42 23 42 16z
m-644 -125 c-8 -41 -14 -66 -15 -56 -1 27 21 153 25 141 2 -5 -2 -44 -10 -85z
m179 -6 c-8 -55 5 -74 51 -74 19 0 34 -2 34 -5 0 -2 -11 -20 -24 -40 -14 -20
-29 -55 -35 -78 -5 -23 -13 -52 -17 -65 -6 -20 3 -33 54 -82 38 -37 74 -63
100 -71 39 -11 40 -13 31 -43 -13 -44 -59 -136 -69 -136 -21 0 -130 93 -164
140 l-38 53 19 34 c18 34 18 34 -10 86 l-28 52 16 145 c9 80 19 148 22 152 2
5 18 1 35 -8 29 -15 30 -18 23 -60z m345 63 c0 -2 -10 -12 -22 -23 l-23 -19
19 23 c18 21 26 27 26 19z m-700 -174 c-8 -3 -22 -11 -30 -17 -13 -10 -13 -9
-1 7 7 9 21 17 30 16 13 0 14 -1 1 -6z m6462 -60 c33 -35 73 -114 89 -176 16
-64 6 -218 -17 -277 -61 -154 -207 -283 -338 -297 l-41 -5 3 166 c2 121 6 166
15 166 7 0 42 -5 79 -10 78 -11 98 -6 98 25 0 17 -12 29 -54 49 -75 37 -141
109 -150 165 -4 24 -5 45 -3 47 2 3 39 -1 81 -7 42 -6 80 -8 84 -4 4 4 7 39 7
78 l0 71 40 8 c22 5 44 13 49 18 16 16 31 12 58 -17z m-6549 -18 c-3 -9 -8
-14 -10 -11 -3 3 -2 9 2 15 9 16 15 13 8 -4z m5755 -106 c23 -12 73 -49 110
-83 84 -77 109 -95 200 -140 l72 -37 0 -50 c0 -43 -3 -50 -17 -46 -78 21 -124
15 -185 -27 l-36 -24 -13 40 c-7 22 -30 59 -51 83 -21 24 -38 47 -37 52 1 4 1
16 0 26 -1 20 -28 23 -33 3 -2 -10 -11 -10 -43 5 -31 14 -35 18 -17 18 19 1
22 6 22 41 0 50 -18 94 -56 139 l-29 34 35 -6 c19 -4 54 -17 78 -28z m-868
-27 c0 -33 57 -102 84 -102 23 0 44 -16 34 -26 -3 -2 -23 -6 -46 -8 -26 -3
-54 -14 -73 -30 -41 -35 -56 -33 -74 10 -8 21 -22 42 -31 49 -14 9 -14 16 -5
33 7 13 9 27 6 33 -14 22 36 57 83 58 15 1 22 -5 22 -17z m-4670 -102 c0 -5
-4 -10 -9 -10 -6 0 -13 5 -16 10 -3 6 1 10 9 10 9 0 16 -4 16 -10z m510 -97
c20 -41 56 -91 91 -125 32 -32 52 -58 46 -58 -55 1 -237 63 -237 82 0 5 8 25
19 46 10 20 24 56 31 80 7 23 14 42 15 42 1 0 17 -30 35 -67z m-322 5 c31 -29
75 -68 97 -85 l40 -33 -76 -72 c-41 -40 -91 -95 -110 -122 l-34 -48 -3 153
c-3 164 4 259 19 259 5 0 35 -24 67 -52z m5883 -4 l24 -26 -30 7 c-37 9 -49
20 -41 34 11 17 20 13 47 -15z m-432 -456 c1 -22 -22 -23 -39 -3 -10 13 -9 19
6 36 17 19 19 19 25 2 4 -10 8 -26 8 -35z m162 -148 c22 -6 51 -10 64 -8 13 2
24 0 25 -4 3 -51 -2 -66 -30 -87 -28 -20 -32 -21 -52 -6 -13 8 -41 15 -64 15
l-42 0 -7 48 c-4 26 -13 61 -20 79 -7 17 -11 34 -8 36 3 3 25 -10 49 -28 25
-19 63 -39 85 -45z m-5477 46 c25 -10 36 -22 41 -46 4 -17 23 -48 43 -69 34
-35 36 -41 27 -68 l-10 -30 -19 24 c-10 14 -38 34 -61 44 -31 14 -48 31 -69
69 -15 27 -31 50 -35 50 -5 0 -24 -7 -44 -15 -46 -19 -61 -59 -39 -101 13 -23
17 -26 20 -11 2 10 -1 31 -6 46 -17 48 19 68 53 31 10 -11 23 -20 30 -20 10 0
55 -52 55 -64 0 -3 -7 -2 -17 1 -11 4 -14 3 -9 -5 4 -7 3 -12 -2 -12 -5 0 -12
-9 -15 -21 -3 -13 -12 -19 -24 -17 -12 2 -17 -2 -15 -14 2 -14 -4 -17 -35 -14
-36 3 -39 6 -49 48 -7 25 -15 72 -19 106 -7 60 -6 62 19 72 14 5 26 14 26 20
0 15 115 12 154 -4z m-307 -98 c-3 -8 -6 -5 -6 6 -1 11 2 17 5 13 3 -3 4 -12
1 -19z m340 -64 c-3 -3 -12 -4 -19 -1 -8 3 -5 6 6 6 11 1 17 -2 13 -5z m37
-33 c11 -12 14 -21 7 -26 -14 -8 -14 -52 -1 -60 6 -4 1 -18 -11 -34 -12 -16
-23 -49 -25 -77 -3 -30 -12 -56 -24 -68 -19 -19 -19 -19 -39 5 -13 16 -16 26
-8 31 8 5 8 14 -1 33 -15 33 -15 42 0 27 16 -16 28 -15 28 3 0 8 4 15 9 15 4
0 6 11 3 25 -2 14 -8 25 -12 25 -5 0 -6 9 -3 21 4 14 9 17 16 10 6 -6 19 -11
30 -11 15 0 17 5 11 23 -10 30 -12 77 -4 77 4 0 15 -9 24 -19z m5326 -63 c0
-5 -11 -14 -25 -20 -14 -6 -28 -22 -32 -36 -5 -20 -8 -22 -20 -10 -12 12 -10
21 13 62 25 45 27 46 45 30 11 -9 19 -21 19 -26z m-5440 28 c0 -11 -19 -15
-25 -6 -3 5 1 10 9 10 9 0 16 -2 16 -4z m-60 -116 c0 -32 -46 7 -54 45 l-6 30
30 -33 c16 -18 30 -37 30 -42z m189 13 c-9 -10 -2 -8 18 6 l31 24 41 -34 c45
-38 46 -48 5 -111 -43 -67 -172 -128 -208 -99 -23 20 -20 31 10 31 29 0 118
80 97 87 -7 2 -9 11 -6 19 3 8 0 14 -6 14 -16 0 -13 42 5 68 9 13 18 21 21 18
3 -3 0 -13 -8 -23z m4927 -5 c-3 -13 -9 -59 -13 -102 -6 -71 -8 -77 -21 -60
-22 29 -52 103 -52 127 0 16 11 27 38 39 50 22 55 22 48 -4z m296 -64 c13 -8
31 -16 40 -20 9 -3 22 -21 28 -38 6 -18 23 -45 39 -60 29 -27 29 -29 16 -67
-42 -117 -95 -206 -174 -288 l-81 -85 0 66 c0 88 -29 177 -86 266 l-47 73 7
67 c4 37 9 81 12 99 l6 32 68 -6 c40 -3 75 -1 86 5 15 8 24 6 41 -10 12 -11
33 -27 45 -34z m-5413 36 c4 0 6 -12 5 -27 -1 -16 -3 -36 -3 -45 -1 -28 -19
-21 -25 10 -16 70 -16 74 0 68 9 -3 19 -6 23 -6z m5461 0 c0 -5 -4 -10 -10
-10 -5 0 -10 5 -10 10 0 6 5 10 10 10 6 0 10 -4 10 -10z m340 -4 c0 -2 -7 -7
-16 -10 -8 -3 -12 -2 -9 4 6 10 25 14 25 6z m-5664 -112 c-15 -14 -31 -23 -33
-20 -3 3 8 16 23 30 16 13 31 22 34 19 3 -2 -8 -16 -24 -29z m1343 -7 c-2 -2
-21 -16 -43 -31 -33 -25 -37 -26 -27 -8 11 21 62 54 70 46 2 -2 2 -5 0 -7z
m4253 -26 c9 -10 24 -24 34 -29 15 -9 17 -13 7 -23 -10 -10 -16 -10 -25 -1 -7
7 -24 12 -39 12 -27 0 -27 1 -18 30 13 35 19 37 41 11z m-638 -97 c23 -22 21
-81 -3 -94 -25 -13 -68 -13 -76 0 -8 13 -35 13 -35 0 0 -6 11 -22 25 -35 26
-27 91 -35 113 -13 9 9 17 -1 35 -43 25 -57 51 -149 44 -156 -2 -2 -12 8 -21
21 -25 38 -66 74 -124 107 -87 49 -116 126 -71 183 35 45 86 58 113 30z
m-5136 -64 c11 -27 18 -51 14 -53 -32 -17 -38 -14 -38 17 1 17 -3 43 -7 59
-13 46 9 30 31 -23z m187 14 c22 -13 57 -44 78 -69 34 -40 43 -45 67 -40 24 5
33 -1 79 -53 40 -47 59 -61 89 -67 40 -7 112 -49 112 -65 0 -16 -20 -12 -46 9
-27 22 -65 18 -90 -10 -18 -20 -59 -25 -83 -10 -8 5 -15 22 -17 37 -2 15 -12
36 -23 47 -17 18 -23 19 -50 7 -65 -27 -131 15 -131 83 0 14 -6 32 -12 39 -24
25 -61 112 -51 121 7 7 29 -1 78 -29z m182 14 c34 -28 1 -31 -67 -6 -20 7 -22
11 -10 19 16 10 58 3 77 -13z m2941 -20 c-19 -30 -88 -99 -88 -89 0 4 20 29
45 55 25 27 45 53 45 59 0 6 3 7 6 4 4 -4 0 -17 -8 -29z m1918 -20 c20 -38 44
-124 43 -153 0 -11 -13 14 -28 55 -45 119 -52 170 -15 98z m-4921 -18 c3 -5 1
-10 -4 -10 -6 0 -11 5 -11 10 0 6 2 10 4 10 3 0 8 -4 11 -10z m740 -39 c39
-17 105 -81 105 -101 0 -17 -48 -11 -82 10 -35 21 -79 26 -107 11 -12 -7 -26
-4 -49 11 -26 16 -32 27 -32 54 l0 34 63 0 c38 0 77 -7 102 -19z m-1030 -98
c19 -17 35 -41 35 -51 0 -23 16 -38 51 -47 16 -4 34 -21 47 -43 11 -20 55 -90
96 -155 54 -84 76 -128 76 -151 0 -17 7 -41 15 -53 24 -34 9 -55 -34 -47 -112
20 -262 110 -338 202 -57 70 -100 160 -115 239 -14 76 -6 109 28 117 38 10 72
35 80 59 7 20 8 20 15 -8 5 -16 24 -44 44 -62z m695 51 c31 -29 77 -46 101
-39 16 5 98 -38 107 -56 14 -29 75 -115 86 -121 9 -5 20 -2 30 7 19 20 26 19
59 -9 33 -27 29 -47 -18 -76 -42 -26 -127 -43 -137 -27 -5 8 -22 -3 -51 -31
-35 -35 -49 -42 -68 -37 -17 4 -33 -1 -52 -15 -39 -31 -35 -65 11 -108 l37
-35 -35 6 c-19 4 -43 16 -55 26 -11 10 -37 28 -58 41 l-38 22 -6 -21 c-6 -24
-9 -25 -52 -10 -35 12 -37 18 -16 59 16 31 62 60 83 53 6 -3 12 1 13 9 3 53
15 76 41 80 51 7 19 118 -34 118 -11 0 -36 13 -54 30 -19 16 -58 36 -88 45
-64 19 -95 47 -77 69 7 8 10 24 6 35 -6 21 -4 21 117 15 110 -6 126 -9 148
-30z m-416 -130 c22 -32 95 -64 147 -64 24 0 38 -4 34 -10 -3 -5 -1 -10 5 -10
7 0 9 7 6 16 -4 9 -1 23 5 30 13 16 59 19 59 4 0 -5 6 -10 13 -10 16 -1 52
-59 60 -98 6 -28 2 -35 -39 -68 -48 -40 -74 -80 -74 -114 0 -15 -6 -20 -24
-20 -19 0 -41 22 -103 108 -110 149 -152 219 -146 242 7 28 38 25 57 -6z m863
-35 c-7 -52 -11 -55 -41 -35 -25 16 -25 16 -8 46 9 16 25 30 36 30 16 0 18 -6
13 -41z m129 31 c33 0 30 -13 -7 -27 -19 -8 -34 -23 -42 -42 -8 -22 -18 -31
-33 -31 -20 0 -22 4 -17 43 8 67 10 70 44 63 18 -3 42 -6 55 -6z m114 -42 c0
-6 -6 -5 -15 2 -8 7 -15 14 -15 16 0 2 7 1 15 -2 8 -4 15 -11 15 -16z m110
-48 c65 -42 142 -126 175 -189 14 -29 25 -54 23 -55 -2 -1 -20 -9 -41 -19 -33
-15 -36 -19 -27 -37 6 -11 14 -20 18 -20 5 0 18 -13 30 -29 l21 -29 -25 -16
c-23 -16 -27 -15 -86 19 -144 84 -332 117 -468 80 -36 -10 -81 -20 -100 -23
-19 -2 -40 -9 -47 -14 -7 -6 -19 -6 -32 1 -11 6 -31 11 -45 11 -24 0 -26 3
-26 44 0 90 40 136 119 136 38 1 102 33 136 69 25 27 34 31 60 25 16 -4 45
-22 63 -40 25 -25 42 -34 67 -34 48 0 88 36 89 82 2 36 20 68 39 68 6 0 31
-14 57 -30z m-386 -61 c-35 -38 -98 -69 -139 -68 -23 1 -18 4 21 13 50 12 98
40 124 71 7 8 15 15 18 15 3 0 -7 -14 -24 -31z m-539 -93 c-22 -19 -42 -32
-45 -29 -6 6 61 63 75 63 5 0 -8 -16 -30 -34z m4930 -16 c-3 -5 -10 -10 -16
-10 -5 0 -9 5 -9 10 0 6 7 10 16 10 8 0 12 -4 9 -10z m245 -54 c0 -2 -8 -10
-17 -17 -16 -13 -17 -12 -4 4 13 16 21 21 21 13z m-609 -33 c-11 -22 -217
-233 -226 -233 -4 0 -19 8 -33 19 -24 16 -131 54 -157 56 -14 0 -34 -62 -34
-107 -1 -21 8 -61 19 -90 23 -62 24 -68 7 -68 -6 0 -34 -12 -61 -26 -26 -14
-49 -24 -49 -22 -16 31 -28 44 -48 46 -13 2 -36 17 -50 33 -17 19 -33 27 -43
23 -23 -9 -58 2 -90 27 l-26 21 24 19 c18 14 33 18 52 13 21 -5 31 -1 50 22
13 16 23 35 24 41 0 20 77 63 112 63 19 0 41 9 55 22 21 20 36 23 116 24 51 1
114 7 142 13 64 16 167 66 196 97 27 28 33 31 20 7z m-4641 -12 c0 -5 3 -18 7
-28 6 -17 5 -17 -15 1 -26 22 -28 36 -7 36 8 0 15 -4 15 -9z m350 -31 c9 -16
8 -22 -4 -26 -21 -8 -36 3 -36 27 0 25 26 25 40 -1z m-267 -12 c11 -40 -23
-55 -43 -19 -16 30 -12 41 14 41 16 0 26 -7 29 -22z m2732 2 c-3 -5 -20 -19
-38 -30 -32 -22 -32 -22 3 9 37 32 45 37 35 21z m1163 -20 c-27 -5 -65 -19
-85 -31 -20 -13 -33 -17 -29 -11 14 23 81 51 121 50 l40 0 -47 -8z m-3063 -25
c127 -33 305 -144 305 -190 0 -13 -18 -58 -39 -101 l-40 -79 -73 0 c-40 0 -83
-4 -95 -8 -20 -7 -23 -5 -23 16 0 14 -8 35 -19 48 -16 20 -16 26 -5 48 25 48
-16 104 -71 98 -16 -2 -44 2 -62 9 -18 8 -48 14 -67 14 -43 0 -66 9 -66 25 0
7 -14 29 -30 50 -17 21 -29 43 -27 49 11 34 209 47 312 21z m3112 -2 c11 -28
-34 -55 -79 -48 -28 5 -46 2 -64 -10 -32 -21 -38 -16 -18 13 35 51 147 82 161
45z m-3699 -41 c19 -24 15 -32 -23 -48 -56 -23 -123 -15 -183 24 -32 21 -11
32 48 25 35 -4 49 -1 60 12 17 20 78 13 98 -13z m266 3 c3 -9 -3 -24 -14 -35
-24 -24 -25 -39 -1 -66 14 -17 28 -22 68 -21 34 1 56 -5 67 -15 12 -12 24 -14
51 -8 38 8 38 8 36 -30 -1 -14 7 -37 18 -51 19 -24 19 -25 0 -49 -18 -24 -19
-24 -19 -4 0 31 -32 67 -51 59 -9 -3 -22 -16 -28 -28 -7 -12 -29 -35 -50 -50
-35 -26 -61 -76 -61 -117 0 -7 -8 -19 -17 -26 -16 -12 -16 -12 5 -7 16 4 22 1
22 -12 0 -24 -36 -11 -79 29 -19 17 -41 37 -49 44 -8 7 -13 14 -11 15 2 1 14
7 25 14 12 6 31 9 42 6 28 -7 34 8 21 65 -11 52 -31 71 -56 51 -7 -7 -16 -9
-20 -5 -3 3 0 6 7 6 11 0 10 3 -2 13 -14 11 -25 45 -43 130 -4 19 -1 29 9 33
9 3 18 15 22 26 6 20 55 47 85 48 9 0 19 -7 23 -15z m4059 -50 c-9 -19 -21
-35 -25 -35 -9 0 6 34 25 58 17 22 17 13 0 -23z m-4520 -147 c85 -84 183 -178
220 -208 36 -30 66 -58 66 -62 1 -5 -9 -8 -21 -8 -35 0 -145 -56 -199 -101
-28 -23 -50 -35 -54 -29 -8 13 -42 12 -87 -4 -36 -13 -37 -13 -73 24 -31 32
-37 45 -39 88 -1 29 0 48 4 43 10 -16 51 -23 65 -11 18 15 21 75 4 64 -7 -4
-10 -1 -7 7 3 8 11 13 17 11 7 -1 9 3 5 9 -3 6 -1 15 7 19 10 7 10 16 1 47
-18 57 -47 99 -92 132 -50 36 -77 69 -85 104 l-7 27 61 0 61 0 153 -152z m207
127 c-14 -8 -34 -14 -45 -14 -13 0 -7 5 15 13 47 18 61 18 30 1z m98 -32 c2
-24 -1 -33 -17 -38 -24 -7 -43 -37 -36 -57 3 -8 -9 -19 -29 -28 l-33 -16 -50
46 c-28 25 -65 63 -84 84 -30 35 -31 38 -9 26 36 -19 129 -18 165 3 17 9 44
16 60 14 26 -2 30 -6 33 -34z m1052 13 c0 -3 -4 -8 -10 -11 -5 -3 -10 -1 -10
4 0 6 5 11 10 11 6 0 10 -2 10 -4z m2304 -18 c14 -55 -1 -64 -39 -21 -16 20
-20 30 -12 35 23 14 45 8 51 -14z m65 9 c8 -10 7 -17 -1 -25 -19 -19 -28 -14
-28 13 0 27 12 32 29 12z m-2515 -39 c8 -32 7 -78 -1 -78 -5 0 -18 16 -31 36
-18 28 -21 39 -11 50 17 21 36 17 43 -8z m3376 1 c0 -6 16 -42 34 -81 27 -54
31 -68 18 -63 -9 4 -47 14 -84 24 l-66 17 39 62 c35 55 59 72 59 41z m-3947 4
c-7 -2 -21 -2 -30 0 -10 3 -4 5 12 5 17 0 24 -2 18 -5z m2857 -29 c0 -33 50
-84 83 -84 14 0 35 11 48 25 27 28 61 32 79 9 20 -24 52 -38 82 -36 14 1 32
-4 40 -11 7 -7 21 -16 31 -20 19 -7 25 -71 7 -82 -5 -3 -10 -15 -10 -25 0 -22
-37 -37 -53 -21 -16 16 -59 14 -85 -5 -20 -14 -27 -14 -75 2 -28 9 -90 36
-137 60 -71 36 -89 51 -112 88 l-26 44 21 19 c37 33 81 62 95 63 6 0 12 -12
12 -26z m240 11 c-7 -8 -17 -15 -23 -15 -6 0 -2 7 9 15 25 19 30 19 14 0z
m-563 -53 l42 -22 -19 -42 c-18 -40 -23 -44 -68 -51 -47 -8 -51 -7 -81 24 -31
30 -35 31 -91 26 -100 -9 -100 26 0 73 58 27 155 23 217 -8z m500 22 c-3 -3
-12 -4 -19 -1 -8 3 -5 6 6 6 11 1 17 -2 13 -5z m-2493 -116 c-9 -18 -32 -52
-51 -75 l-34 -43 -23 27 -23 26 34 55 c18 31 33 59 33 63 0 4 5 20 10 35 l11
27 30 -41 c30 -40 30 -41 13 -74z m1386 52 c0 -5 -5 -10 -11 -10 -5 0 -7 5 -4
10 3 6 8 10 11 10 2 0 4 -4 4 -10z m-53 -16 c3 -8 -2 -32 -12 -53 -29 -66 4
-149 71 -177 35 -15 73 -7 104 21 12 11 22 11 52 2 30 -9 39 -18 44 -42 11
-52 52 -111 119 -170 l64 -57 -2 -54 c-2 -31 -10 -61 -19 -71 -9 -10 -18 -29
-20 -43 -2 -17 -15 -31 -41 -43 -34 -17 -40 -18 -62 -3 -13 8 -26 25 -30 36
-13 42 -100 53 -150 20 -36 -24 -59 -37 -82 -48 -10 -5 -22 -18 -28 -30 -12
-26 -52 -29 -93 -8 -15 8 -46 17 -67 21 -22 4 -54 14 -72 23 -25 12 -40 14
-70 6 l-38 -9 1 -57 c1 -54 0 -56 -27 -62 -34 -7 -62 -47 -61 -87 l1 -30 -30
40 c-34 47 -91 88 -135 97 -29 5 -32 10 -37 53 -7 64 10 201 34 274 75 224
240 387 453 448 78 23 125 24 133 3z m226 -11 c26 -8 47 -18 47 -20 0 -3 -4
-22 -10 -42 -5 -20 -12 -48 -15 -63 -4 -22 -11 -28 -30 -28 -22 0 -25 4 -25
36 0 45 -25 98 -59 125 l-26 21 35 -7 c19 -4 56 -14 83 -22z m-2414 -15 c-3
-18 11 -48 23 -48 5 0 7 8 4 18 -4 10 1 22 12 29 16 9 18 7 19 -22 1 -26 -4
-35 -24 -44 -20 -9 -29 -8 -54 10 -33 23 -35 31 -13 53 19 19 36 21 33 4z
m2535 -40 c2 -7 8 -27 13 -44 9 -29 8 -33 -14 -43 -13 -6 -33 -11 -45 -11 -18
0 -19 4 -13 37 4 21 11 46 16 55 11 21 38 24 43 6z m-2184 -48 c0 -9 -11 -22
-25 -28 -37 -17 -47 -15 -40 8 3 10 1 28 -4 39 -10 17 -7 20 17 23 29 4 52
-15 52 -42z m-82 -3 c2 -18 -2 -29 -12 -32 -9 -3 -23 -7 -32 -10 -12 -4 -14
-8 -5 -19 6 -7 8 -16 5 -19 -14 -13 -24 6 -24 44 0 22 4 38 9 34 5 -3 12 -1
16 5 3 5 0 10 -7 10 -9 0 -9 3 2 10 25 16 45 7 48 -23z m2612 -40 c0 -29 -3
-33 -27 -32 -24 0 -28 -4 -25 -25 2 -14 3 -42 2 -64 -1 -45 14 -66 45 -66 16
0 27 -12 45 -50 l23 -50 -22 -24 c-25 -27 -38 -96 -27 -141 4 -14 22 -42 41
-63 l34 -38 -140 -149 c-130 -137 -336 -381 -438 -517 l-43 -58 -33 43 c-37
48 -89 92 -155 129 -44 26 -126 54 -144 49 -13 -3 -36 20 -30 30 10 17 56 9
75 -13 14 -18 18 -20 19 -7 0 26 -29 44 -70 43 -28 -1 -37 2 -33 12 3 7 -2 28
-11 45 -19 38 -20 65 -4 75 8 5 9 2 4 -11 -7 -18 -6 -18 16 0 13 11 25 22 28
24 3 2 -6 0 -20 -3 -24 -7 -24 -6 -6 8 28 22 35 20 74 -16 l34 -33 -15 31 c-9
17 -24 34 -33 38 -13 5 -14 9 -4 21 11 13 10 27 0 73 -8 31 -13 64 -11 72 1
12 0 13 -7 1 -6 -7 -14 -11 -19 -8 -41 26 -67 -100 -27 -132 l21 -17 -25 -18
c-13 -10 -28 -32 -34 -48 -13 -36 -24 -33 -51 13 l-20 35 32 31 c32 33 38 62
21 107 -9 24 -7 26 19 26 34 0 51 18 60 63 7 28 11 32 39 31 20 -1 40 -11 53
-25 11 -13 22 -19 25 -14 7 17 84 5 105 -16 26 -26 55 -24 75 7 14 20 15 32 6
60 -9 31 -8 36 15 54 15 12 41 20 62 20 30 0 44 -8 75 -39 51 -52 91 -60 127
-25 15 14 33 24 41 22 19 -7 -43 -66 -78 -73 -115 -26 -142 -43 -174 -106 -11
-21 -24 -39 -29 -39 -14 0 -32 -51 -26 -74 6 -19 5 -20 -8 -4 -8 10 -16 15
-20 12 -3 -3 -19 2 -35 10 -28 14 -32 14 -47 0 -9 -9 -14 -23 -11 -30 3 -8 -1
-14 -8 -14 -7 0 -19 -7 -27 -16 -10 -13 -8 -24 17 -70 16 -31 42 -67 59 -81
24 -21 36 -24 72 -19 32 4 46 1 59 -12 17 -16 17 -16 10 3 -13 35 -12 38 26
57 44 21 54 47 34 87 -10 18 -13 41 -10 60 5 21 0 41 -15 67 l-21 36 38 38
c31 31 48 40 90 46 52 7 102 35 129 73 10 14 25 21 49 21 45 0 74 29 74 75 0
52 -24 92 -64 106 -31 11 -35 18 -50 78 -18 72 -32 94 -46 72 -14 -24 -85 32
-115 92 -32 64 -32 87 -2 87 12 1 39 7 59 14 21 8 35 10 33 5 -7 -11 34 -57
49 -55 16 2 63 36 100 71 21 20 49 34 86 41 30 6 56 12 58 13 1 0 2 -14 2 -32z
m278 -1 c37 -19 91 -44 121 -57 49 -21 52 -24 35 -36 -11 -8 -32 -12 -47 -10
-15 2 -30 0 -33 -5 -3 -4 -21 -8 -41 -8 -52 0 -74 -23 -61 -62 9 -25 8 -32 -6
-40 -35 -19 -8 -98 34 -98 29 0 43 -25 23 -41 -13 -12 -17 -12 -21 -1 -2 8
-18 29 -34 47 -32 37 -81 58 -124 53 -44 -5 -68 52 -68 167 l-1 90 46 0 c26 1
57 8 70 17 32 23 31 23 107 -16z m-2748 -23 c-11 -27 -21 -56 -24 -65 -7 -24
-45 -23 -76 2 l-25 20 29 0 c33 0 76 34 76 60 0 20 9 30 26 30 9 0 7 -13 -6
-47z m528 -55 c3 -65 -1 -97 -17 -147 -25 -76 -27 -181 -6 -261 13 -49 13 -56
-3 -73 -16 -18 -17 -18 -39 7 -45 53 -158 93 -204 72 -12 -5 -37 11 -88 54
-70 61 -70 62 -55 86 11 16 26 24 46 24 66 0 122 23 169 70 48 48 59 77 59
160 0 31 6 56 18 70 19 24 90 43 106 29 5 -5 11 -46 14 -91z m2575 79 c25 1
37 -3 37 -12 0 -21 -30 -26 -95 -15 -33 5 -62 10 -65 10 -3 0 4 7 15 16 13 10
28 12 45 7 14 -4 42 -7 63 -6z m-3460 -122 c33 -29 34 -35 5 -35 -11 0 -46
-12 -76 -27 -41 -20 -50 -28 -38 -33 16 -5 14 -10 -14 -40 l-31 -33 -29 34
c-29 34 -34 31 -30 -18 1 -13 -2 -23 -7 -23 -24 1 -53 14 -53 25 0 7 -7 18
-15 25 -8 7 -15 18 -15 25 0 19 102 85 162 106 72 25 107 23 141 -6z m3288 12
c-9 -11 -5 -14 19 -15 16 0 32 4 35 9 8 11 65 12 65 0 0 -9 -146 -131 -157
-131 -5 0 -13 10 -18 23 -6 12 -20 26 -32 32 -24 10 -37 56 -20 67 19 12 47 9
47 -4 0 -9 3 -10 8 -2 8 12 43 33 56 34 5 0 3 -6 -3 -13z m-2925 -89 c15 -24
39 -53 55 -66 24 -19 27 -27 19 -43 -16 -29 -26 -23 -50 26 -12 24 -35 59 -51
76 -27 29 -30 49 -9 49 6 0 22 -19 36 -42z m-336 17 c0 -8 5 -15 10 -15 6 0
10 -13 10 -30 0 -25 -4 -30 -25 -30 -24 0 -25 -2 -19 -35 7 -39 -9 -48 -32
-17 -9 10 -17 13 -21 7 -11 -14 -56 -12 -66 3 -5 7 0 22 12 37 11 15 21 21 23
13 2 -6 14 3 27 20 18 26 19 31 5 25 -12 -4 -15 -3 -10 6 18 28 86 41 86 16z
m300 -65 c0 -15 -5 -12 -26 11 -19 22 -19 22 4 10 12 -6 22 -16 22 -21z m2862
-52 c-23 -27 -27 -22 -28 31 l0 49 21 -32 c20 -28 21 -33 7 -48z m-3010 14
c25 -51 45 -69 91 -81 23 -6 55 -22 71 -35 29 -24 29 -26 17 -66 -18 -62 -25
-205 -13 -282 6 -38 29 -109 51 -159 22 -49 34 -88 28 -85 -7 2 -46 12 -88 22
l-76 18 15 45 c24 71 -8 200 -54 218 -8 3 -34 -8 -57 -24 -69 -48 -73 -49 -49
-11 23 37 27 79 11 113 -6 14 -7 8 -3 -22 8 -57 -1 -78 -40 -103 -58 -35 -70
-26 -32 24 18 24 39 65 45 92 7 27 17 54 23 61 7 8 7 22 0 40 -5 16 -6 38 -1
51 11 29 -4 97 -25 121 -14 16 -14 21 12 59 31 49 50 50 74 4z m-152 -52 c0
-5 -7 -10 -16 -10 -8 0 -12 5 -9 10 3 6 10 10 16 10 5 0 9 -4 9 -10z m75 -94
c0 -51 -13 -61 -32 -25 -14 26 -17 91 -6 103 16 15 39 -32 38 -78z m3248 27
c-7 -2 -19 -2 -25 0 -7 3 -2 5 12 5 14 0 19 -2 13 -5z m-3576 -106 c31 -34 34
-43 32 -91 -1 -29 1 -57 4 -63 9 -15 46 -23 53 -12 3 5 16 9 28 9 13 0 35 9
49 20 31 25 44 26 26 3 -11 -15 -11 -16 1 -6 7 7 14 33 15 58 1 26 -2 40 -7
33 -4 -7 -8 -20 -8 -27 0 -8 -12 -28 -27 -43 -29 -30 -73 -38 -73 -13 0 9 -11
21 -25 27 -27 12 -32 24 -13 30 9 3 6 15 -9 40 l-21 36 39 -3 c22 -1 43 -5 46
-9 12 -12 21 -6 27 20 6 22 10 25 36 19 23 -5 30 -3 30 9 0 20 1 20 45 -1 22
-10 35 -24 35 -36 0 -10 4 -27 10 -37 11 -21 -8 -85 -40 -130 -25 -36 -97 -71
-128 -64 -12 4 -28 1 -35 -5 -28 -23 -147 27 -192 81 -35 41 -64 105 -65 140
0 20 5 27 23 30 14 2 21 9 21 21 -1 9 3 18 10 18 6 1 18 2 26 3 8 0 17 12 19
26 4 24 4 23 18 -10 8 -19 31 -52 50 -73z m23 73 c0 -11 -7 -20 -15 -20 -20 0
-19 -16 1 -24 9 -4 14 -9 10 -13 -11 -11 -46 29 -46 54 0 18 5 23 25 23 18 0
25 -5 25 -20z m3683 0 c30 -11 64 -31 76 -44 21 -23 22 -24 5 -60 -20 -40 -38
-45 -84 -21 -19 10 -30 24 -32 42 -4 36 -55 62 -120 63 -51 0 -63 15 -25 30
39 15 124 11 180 -10z m-3448 0 c3 -5 1 -10 -4 -10 -6 0 -11 5 -11 10 0 6 2
10 4 10 3 0 8 -4 11 -10z m494 -120 c60 -51 109 -101 121 -125 11 -22 28 -50
36 -61 14 -20 13 -22 -12 -28 -41 -11 -80 -42 -94 -76 -10 -25 -10 -34 4 -54
26 -41 99 -77 165 -83 l59 -6 12 -46 c18 -73 70 -160 129 -218 30 -29 50 -53
44 -53 -5 0 -43 9 -85 19 -152 39 -296 129 -383 239 -105 132 -167 326 -145
454 14 82 30 130 40 126 5 -2 54 -41 109 -88z m2855 73 c8 -10 27 -33 42 -51
15 -19 38 -38 51 -43 13 -5 23 -17 23 -27 0 -11 9 -29 20 -42 22 -25 25 -36
12 -44 -12 -7 -26 6 -39 37 -13 28 -27 34 -38 17 -10 -16 -28 -12 -21 5 3 8 1
15 -4 15 -6 0 -10 6 -10 14 0 8 -13 20 -30 28 -16 7 -30 17 -30 22 0 5 -7 18
-16 28 -13 14 -14 21 -5 32 10 12 8 15 -11 19 -17 3 -15 5 10 6 20 0 38 -6 46
-16z m-1087 -7 c-20 -8 -45 -19 -55 -26 -9 -7 -4 -1 11 14 16 15 39 26 55 26
24 -1 23 -2 -11 -14z m-1630 -2 c-3 -3 -12 -4 -19 -1 -8 3 -5 6 6 6 11 1 17
-2 13 -5z m1878 -44 c-10 -11 -23 -20 -28 -20 -6 0 -2 9 8 20 10 11 23 20 28
20 6 0 2 -9 -8 -20z m10 -75 c-16 -14 -34 -25 -39 -25 -6 0 5 11 24 25 43 32
54 32 15 0z m-418 9 c-3 -3 -12 -4 -19 -1 -8 3 -5 6 6 6 11 1 17 -2 13 -5z
m277 -58 c-17 -8 -43 -29 -58 -47 l-28 -34 17 31 c18 33 60 64 85 63 8 0 1 -6
-16 -13z m1194 -39 c29 -27 28 -39 -8 -101 -34 -61 -86 -94 -157 -103 -38 -4
-52 -2 -62 11 -7 9 -19 16 -25 16 -25 0 -66 103 -46 115 5 3 10 15 10 26 0 11
7 22 15 25 8 4 13 10 10 14 -3 5 -1 11 5 15 5 3 10 1 10 -4 0 -6 16 -11 35
-11 19 0 35 -4 35 -9 0 -5 8 -12 19 -16 21 -6 38 -68 21 -73 -6 -2 -17 -11
-26 -19 -13 -14 -13 -17 6 -30 26 -18 43 -7 37 23 -2 14 -1 27 4 30 4 2 6 11
3 19 -7 18 66 106 80 98 6 -3 21 -15 34 -26z m-3547 -76 c-16 -11 3 -25 23
-18 10 4 12 -1 9 -14 -5 -18 -6 -18 -34 4 -34 27 -36 37 -6 37 16 0 18 -3 8
-9z m1705 -39 c31 -26 48 -62 48 -102 1 -28 5 -36 23 -38 13 -2 20 -8 17 -17
-3 -7 -1 -16 5 -19 6 -4 7 -14 4 -23 -5 -12 -2 -15 10 -10 9 3 19 2 22 -3 10
-17 -42 -11 -56 6 -10 12 -24 15 -55 10 -50 -6 -54 0 -41 66 6 31 6 66 0 98
-11 55 -8 58 23 32z m447 -78 c3 -3 1 -14 -5 -24 -9 -14 -9 -22 1 -34 19 -23
28 -20 40 15 9 26 13 30 26 19 24 -20 28 -50 9 -71 -22 -25 -75 -25 -105 0
-20 16 -22 22 -12 42 6 13 14 32 17 42 5 17 18 22 29 11z m1347 0 c0 -9 -68
-34 -92 -33 -13 0 -2 6 25 13 26 7 50 16 54 19 8 8 13 9 13 1z m-2400 -81 c45
-60 89 -90 147 -99 29 -4 63 -19 90 -40 77 -59 170 -58 249 2 25 20 47 34 49
32 12 -14 36 -73 44 -107 7 -34 6 -43 -8 -51 -9 -5 -11 -10 -3 -10 15 0 16
-48 1 -87 -16 -43 -60 -84 -82 -77 -10 3 -26 -1 -36 -11 -17 -15 -21 -14 -55
5 -22 14 -49 21 -73 19 -21 -1 -43 -1 -50 0 -7 0 -54 56 -105 124 -50 67 -129
166 -175 220 -46 54 -83 104 -83 112 0 10 10 15 28 15 21 0 35 -11 62 -47z
m1137 -38 c-16 -14 -40 -25 -55 -25 -24 1 -23 2 12 15 21 7 43 18 49 24 6 6
13 11 17 11 3 0 -8 -12 -23 -25z m-557 -68 c0 -10 10 -28 23 -40 13 -12 24
-36 25 -54 2 -34 -12 -52 -24 -31 -4 6 -2 14 5 16 7 2 9 7 4 11 -5 3 -23 36
-40 73 -27 57 -29 65 -12 55 10 -6 19 -20 19 -30z m148 -47 c-5 -17 -14 -28
-18 -25 -5 3 -3 18 3 34 14 39 29 30 15 -9z m208 -30 c59 -29 174 -128 174
-150 0 -9 -120 -180 -126 -180 -9 0 -34 62 -34 86 0 20 4 25 16 20 23 -9 9 29
-33 86 -47 65 -86 95 -133 103 -41 7 -49 21 -33 60 9 25 87 14 169 -25z m-242
-91 c10 -17 21 -55 25 -85 7 -48 6 -54 -10 -54 -41 0 -119 -103 -119 -159 0
-10 -7 -24 -16 -32 -10 -8 -14 -23 -11 -43 2 -17 0 -42 -5 -56 -5 -14 -10 -61
-10 -105 l0 -80 -24 48 c-23 44 -23 49 -9 70 20 28 19 98 -2 145 -34 78 -29
103 35 157 27 22 35 25 47 15 22 -18 30 -5 17 24 -21 46 23 186 57 186 4 0 15
-14 25 -31z m64 -9 c8 -20 8 -32 0 -36 -13 -8 -28 14 -28 44 0 32 16 27 28 -8z
m119 -5 c24 -17 43 -71 43 -121 0 -17 11 -52 25 -79 23 -46 23 -50 8 -76 -9
-15 -28 -31 -42 -34 -14 -4 -29 -12 -33 -18 -4 -6 -10 -8 -15 -4 -4 5 -1 12 6
17 8 4 12 17 8 29 -3 11 1 25 8 31 15 12 9 41 -11 53 -7 4 -15 21 -19 38 l-7
31 -22 -21 c-12 -12 -26 -18 -30 -14 -4 4 3 15 15 24 22 16 22 18 7 57 -13 34
-14 42 -2 46 7 3 16 17 20 31 7 29 12 30 41 10z m-172 -157 c-11 -6 -30 -20
-42 -31 -29 -26 -30 -11 -1 20 12 13 31 23 42 23 21 -1 21 -1 1 -12z m69 -29
c-8 -13 -24 -1 -24 18 0 13 3 13 15 3 8 -7 12 -16 9 -21z m-65 -8 c-6 -16 -26
-48 -46 -71 -36 -41 -37 -42 -45 -20 -5 13 -6 25 -3 28 3 3 5 0 5 -8 0 -10 3
-10 15 0 8 7 15 21 15 32 0 20 42 68 59 68 7 0 7 -10 0 -29z m-239 -40 c0 -5
-7 -11 -14 -14 -10 -4 -13 -1 -9 9 6 15 23 19 23 5z m254 -30 c6 -10 -22 -37
-29 -29 -8 7 5 38 15 38 5 0 11 -4 14 -9z m-233 -67 c17 -20 18 -109 1 -126
-11 -11 -16 -10 -28 6 -19 26 -18 37 4 29 9 -3 14 -2 9 2 -4 5 1 17 10 27 16
18 16 18 -2 12 -11 -5 -16 -4 -12 2 3 6 -3 17 -14 24 -10 8 -19 20 -19 27 0
18 35 16 51 -3z m-71 -4 c0 -5 -4 -10 -10 -10 -5 0 -10 5 -10 10 0 6 5 10 10
10 6 0 10 -4 10 -10z m330 -20 c0 -23 26 -45 35 -30 10 16 35 -7 35 -31 0 -11
5 -19 10 -19 16 0 12 -15 -22 -74 -33 -56 -48 -69 -48 -41 0 8 -7 15 -15 15
-8 0 -15 -7 -15 -16 0 -8 4 -13 9 -9 14 8 25 -35 12 -48 -20 -20 -44 6 -58 62
-10 36 -10 57 -3 70 5 11 7 27 4 35 -10 27 -21 18 -16 -14 3 -18 0 -30 -7 -30
-27 0 2 -95 41 -137 13 -14 16 -23 9 -23 -7 0 -11 -6 -8 -12 6 -19 -21 -68
-38 -68 -8 0 -22 15 -31 33 -9 17 -26 43 -38 55 -18 21 -21 35 -20 114 0 79 3
93 21 107 11 10 28 31 36 48 14 26 21 30 61 31 38 0 46 -3 46 -18z m300 -77
c1 -10 9 -36 20 -58 17 -37 17 -41 2 -49 -55 -29 -81 -71 -91 -146 -6 -44 -6
-44 -66 -63 -33 -10 -72 -17 -88 -15 l-27 3 63 115 c49 88 74 121 105 143 22
15 46 41 54 57 14 33 28 39 28 13z m-1343 -17 c13 -22 56 -41 61 -27 3 9 7 9
17 1 10 -8 19 -8 34 2 18 11 23 10 38 -6 13 -13 15 -20 6 -23 -7 -3 -13 -10
-13 -16 0 -7 -10 -18 -21 -26 -20 -12 -24 -10 -43 14 -22 28 -55 32 -63 8 -6
-17 43 -64 60 -58 9 4 17 -7 25 -32 6 -20 10 -39 8 -41 -3 -2 -22 -6 -43 -9
-28 -4 -51 1 -81 16 -44 22 -74 62 -53 69 17 6 13 54 -6 81 -16 23 -15 25 6
43 27 21 57 23 68 4z m463 -41 c-18 -19 -35 -33 -38 -31 -4 4 59 65 67 66 3 0
-10 -16 -29 -35z m-87 -42 c-13 -2 -33 -2 -45 0 -13 2 -3 4 22 4 25 0 35 -2
23 -4z m587 -228 c0 -11 -13 -35 -19 -35 -8 0 -31 45 -31 61 0 5 11 2 25 -7
14 -9 25 -18 25 -19z"/>
<path d="M4520 7402 c-8 -3 -18 -10 -22 -15 -9 -15 12 -54 38 -71 19 -13 24
-13 34 -1 10 12 10 21 0 45 -15 36 -30 49 -50 42z"/>
<path d="M4800 7356 c0 -16 24 -38 33 -30 8 9 -11 44 -23 44 -6 0 -10 -6 -10
-14z"/>
<path d="M4450 7108 c0 -17 18 -44 24 -37 8 7 -5 49 -15 49 -5 0 -9 -6 -9 -12z"/>
<path d="M8970 7023 c-28 -11 -51 -45 -44 -67 14 -47 43 -58 79 -32 19 14 29
56 13 56 -5 0 -6 5 -3 10 5 9 -17 42 -27 39 -2 0 -10 -3 -18 -6z"/>
<path d="M8436 6662 c-6 -10 22 -47 30 -40 3 4 3 16 -1 27 -6 21 -20 27 -29
13z"/>
<path d="M8070 5985 c0 -2 9 -9 20 -15 16 -9 18 -8 14 5 -5 13 -34 22 -34 10z"/>
<path d="M5019 5366 l-20 -34 -24 24 c-36 36 -49 31 -42 -17 5 -40 5 -40 -23
-34 -35 8 -46 -8 -26 -37 14 -20 14 -24 -1 -40 -13 -14 -13 -20 -3 -33 7 -8
19 -15 26 -15 8 0 14 -9 14 -21 0 -12 8 -23 20 -26 11 -3 20 -13 20 -23 0 -10
9 -28 19 -41 l19 -24 22 38 c22 38 34 45 45 27 3 -5 13 -10 21 -10 11 0 13 9
8 39 -6 36 -5 39 14 35 29 -8 35 10 11 40 -16 21 -18 30 -9 41 9 11 7 18 -9
32 -12 9 -21 27 -21 40 0 27 -20 73 -32 73 -5 0 -18 -15 -29 -34z"/>
<path d="M5400 4970 c0 -5 5 -10 10 -10 6 0 10 5 10 10 0 6 -4 10 -10 10 -5 0
-10 -4 -10 -10z"/>
<path d="M7390 4888 c-11 -24 -20 -49 -20 -55 0 -9 -10 -11 -30 -6 -32 6 -39
-7 -20 -37 8 -12 2 -17 -27 -26 -45 -13 -49 -23 -23 -52 l21 -22 -20 -29 c-12
-16 -21 -33 -21 -39 0 -16 32 -37 52 -34 14 3 18 -3 18 -28 0 -38 16 -70 35
-70 8 0 24 18 35 41 20 38 23 40 39 25 20 -18 31 -12 31 19 0 31 10 36 34 20
11 -8 24 -15 29 -15 10 0 5 43 -8 73 -6 13 -2 17 16 17 13 0 30 4 37 8 18 12
-1 58 -27 67 -19 6 -20 8 -5 31 34 50 -3 92 -57 64 -17 -10 -19 -7 -19 20 0
39 -16 70 -36 70 -8 0 -24 -19 -34 -42z"/>
<path d="M5410 4891 c0 -13 29 -35 37 -27 3 3 1 6 -5 6 -6 0 -9 7 -6 15 4 9 0
15 -10 15 -9 0 -16 -4 -16 -9z"/>
<path d="M6826 4623 c-7 -8 25 -54 34 -48 12 7 0 43 -15 49 -7 2 -16 2 -19 -1z"/>
<path d="M6767 4534 c-3 -3 -1 -15 6 -25 14 -23 42 -26 33 -3 -3 9 -6 20 -6
25 0 10 -23 12 -33 3z"/>
<path d="M7816 4514 c-3 -9 -6 -24 -6 -34 0 -10 -8 -21 -17 -24 -12 -5 -14 -9
-5 -18 9 -9 7 -17 -6 -31 -12 -15 -14 -21 -4 -24 6 -3 12 -14 12 -26 1 -28 21
-55 38 -49 7 2 21 -6 31 -19 20 -25 41 -19 41 12 0 10 7 19 15 19 8 0 15 9 15
20 0 13 7 20 20 20 23 0 24 4 10 30 -6 11 -6 21 -1 24 13 9 1 46 -15 46 -8 0
-14 10 -14 23 0 33 -10 39 -36 22 -21 -14 -24 -13 -34 5 -13 24 -36 26 -44 4z"/>
<path d="M7418 4213 c6 -2 18 -2 25 0 6 3 1 5 -13 5 -14 0 -19 -2 -12 -5z"/>
<path d="M7530 4160 c0 -5 5 -10 10 -10 6 0 10 5 10 10 0 6 -4 10 -10 10 -5 0
-10 -4 -10 -10z"/>
<path d="M6954 3654 c3 -9 6 -18 6 -20 0 -2 4 -4 9 -4 5 0 7 9 4 20 -3 11 -10
20 -15 20 -6 0 -7 -7 -4 -16z"/>
<path d="M7090 3630 c-21 -13 -1 -64 28 -68 18 -3 22 1 22 22 0 13 -7 32 -16
40 -18 19 -15 18 -34 6z"/>
<path d="M5946 3021 c-7 -10 32 -47 40 -38 3 3 3 15 -1 26 -6 21 -29 28 -39
12z"/>
<path d="M5912 2968 c-14 -18 2 -54 34 -74 25 -17 27 -17 40 0 31 42 -41 114
-74 74z"/>
<path d="M8560 6890 c0 -5 5 -10 10 -10 6 0 10 5 10 10 0 6 -4 10 -10 10 -5 0
-10 -4 -10 -10z"/>
<path d="M8046 5895 c-29 -22 -15 -25 19 -4 17 11 23 19 15 19 -8 -1 -24 -7
-34 -15z"/>
<path d="M8113 5843 c-16 -6 -17 -35 -1 -51 18 -18 58 -15 58 4 0 40 -25 60
-57 47z"/>
<path d="M3655 5060 c3 -5 8 -10 11 -10 2 0 4 5 4 10 0 6 -5 10 -11 10 -5 0
-7 -4 -4 -10z"/>
<path d="M3806 4445 c-11 -8 -15 -15 -9 -15 6 0 16 7 23 15 16 19 11 19 -14 0z"/>
<path d="M4395 4230 c-8 -24 20 -73 37 -68 22 8 30 33 19 61 -13 32 -47 37
-56 7z"/>
<path d="M4161 4151 c-19 -12 3 -51 29 -51 24 0 26 23 4 44 -18 19 -15 18 -33
7z"/>
<path d="M4566 3895 c-7 -19 22 -55 45 -55 21 0 25 25 9 50 -11 19 -47 22 -54
5z"/>
<path d="M8222 3657 c-9 -10 -7 -19 4 -35 16 -24 44 -30 44 -9 -1 49 -25 72
-48 44z"/>
<path d="M4930 3674 c0 -3 7 -12 15 -20 16 -17 18 -14 9 10 -6 15 -24 23 -24
10z"/>
<path d="M8080 3398 c0 -18 20 -38 38 -38 8 0 12 9 10 23 -3 25 -48 39 -48 15z"/>
<path d="M7095 2919 c-10 -30 3 -56 31 -63 14 -4 29 -4 33 -1 13 7 21 45 9 45
-5 0 -7 4 -3 9 5 9 -20 21 -52 27 -7 1 -15 -6 -18 -17z"/>
<path d="M6650 2836 c0 -16 24 -39 32 -30 3 3 4 14 1 25 -6 22 -33 26 -33 5z"/>
<path d="M6670 2640 c0 -5 5 -10 11 -10 5 0 7 5 4 10 -3 6 -8 10 -11 10 -2 0
-4 -4 -4 -10z"/>
<path d="M6720 2469 c0 -5 5 -7 10 -4 6 3 10 8 10 11 0 2 -4 4 -10 4 -5 0 -10
-5 -10 -11z"/>
<path d="M6610 2437 c0 -10 7 -25 15 -33 19 -19 19 -7 0 26 -11 20 -14 21 -15
7z"/>
<path d="M6618 2293 c6 -2 18 -2 25 0 6 3 1 5 -13 5 -14 0 -19 -2 -12 -5z"/>
<path d="M7835 3250 c-3 -5 -1 -10 4 -10 6 0 11 5 11 10 0 6 -2 10 -4 10 -3 0
-8 -4 -11 -10z"/>
<path d="M4840 2793 c-22 -8 -50 -35 -50 -47 0 -6 6 -4 13 5 18 23 56 41 69
33 32 -20 48 -41 48 -62 0 -20 3 -22 14 -13 19 16 9 47 -22 71 -25 20 -44 23
-72 13z"/>
<path d="M4555 2720 c3 -5 8 -10 11 -10 2 0 4 5 4 10 0 6 -5 10 -11 10 -5 0
-7 -4 -4 -10z"/>
<path d="M8016 2541 c-8 -12 28 -55 42 -50 6 2 1 15 -13 31 -13 16 -26 24 -29
19z"/>
<path d="M6850 1600 c0 -5 5 -10 10 -10 6 0 10 5 10 10 0 6 -4 10 -10 10 -5 0
-10 -4 -10 -10z"/>
<path d="M5459 1593 c-13 -17 -13 -17 6 -3 11 8 22 16 24 17 2 2 0 3 -6 3 -6
0 -17 -8 -24 -17z"/>
<path d="M3406 6105 c-3 -9 1 -18 10 -22 19 -7 28 2 21 22 -8 19 -23 19 -31 0z"/>
<path d="M9457 4923 c-12 -11 -7 -40 8 -53 25 -20 42 2 27 35 -12 25 -23 31
-35 18z"/>
<path d="M9412 4448 c-17 -17 -15 -35 8 -58 26 -26 40 -18 40 20 0 34 -30 56
-48 38z"/>
<path d="M3440 4045 c0 -25 32 -51 50 -40 14 8 12 39 -2 53 -21 21 -48 14 -48
-13z"/>
<path d="M4040 3120 c0 -5 5 -10 10 -10 6 0 10 5 10 10 0 6 -4 10 -10 10 -5 0
-10 -4 -10 -10z"/>
<path d="M3927 3029 c7 -7 15 -10 18 -7 3 3 -2 9 -12 12 -14 6 -15 5 -6 -5z"/>
<path d="M4125 2717 c-23 -17 -14 -62 16 -78 16 -8 25 -7 40 7 23 21 21 43 -8
67 -25 20 -25 20 -48 4z"/>
<path d="M7830 2590 c-8 -5 -12 -11 -9 -14 2 -3 11 -1 19 4 8 5 12 11 9 14 -2
3 -11 1 -19 -4z"/>
<path d="M7877 2582 c6 -4 19 -21 27 -37 9 -17 16 -23 16 -15 0 21 -28 60 -43
60 -9 0 -9 -2 0 -8z"/>
<path d="M7811 2544 c0 -11 3 -14 6 -6 3 7 2 16 -1 19 -3 4 -6 -2 -5 -13z"/>
<path d="M8344 2516 c-6 -16 12 -56 26 -56 36 0 53 33 28 58 -16 16 -47 15
-54 -2z"/>
<path d="M5796 1425 c-7 -19 38 -69 57 -62 12 4 12 46 -1 58 -18 17 -50 19
-56 4z"/>
<path d="M5616 1351 c-3 -5 1 -14 9 -21 12 -10 15 -10 15 3 0 19 -16 31 -24
18z"/>
</g>
</svg>
