<svg width="24" height="25" viewBox="0 0 24 25" fill="none" xmlns="http://www.w3.org/2000/svg">
<path d="M22.5 6.125C19.1434 6.125 15.9242 7.45842 13.5507 9.83193C11.1772 12.2054 9.84375 15.4246 9.84375 18.7812V25.5341L7.1325 32.3234C7.04758 32.5367 7.01614 32.7674 7.04092 32.9956C7.0657 33.2238 7.14595 33.4424 7.27466 33.6324C7.40338 33.8224 7.57664 33.9781 7.77934 34.0857C7.98203 34.1934 8.20799 34.2498 8.4375 34.25H16.875C16.875 37.3663 19.3837 39.875 22.5 39.875C25.6162 39.875 28.125 37.3663 28.125 34.25H36.5625C36.792 34.2498 37.018 34.1934 37.2207 34.0857C37.4234 33.9781 37.5966 33.8224 37.7253 33.6324C37.854 33.4424 37.9343 33.2238 37.9591 32.9956C37.9839 32.7674 37.9524 32.5367 37.8675 32.3234L35.1562 25.5312V18.7812C35.1562 15.4246 33.8228 12.2054 31.4493 9.83193C29.0758 7.45842 25.8566 6.125 22.5 6.125ZM25.3125 34.25C25.3125 35.8137 24.0637 37.0625 22.5 37.0625C20.9362 37.0625 19.6875 35.8137 19.6875 34.25H25.3125ZM12.6562 18.7812C12.6562 16.1705 13.6934 13.6667 15.5394 11.8207C17.3855 9.97461 19.8893 8.9375 22.5 8.9375C25.1107 8.9375 27.6145 9.97461 29.4606 11.8207C31.3066 13.6667 32.3437 16.1705 32.3437 18.7812V25.8069C32.3442 25.9852 32.3786 26.1617 32.445 26.3272L34.4869 31.4375H10.5131L12.555 26.3272C12.6214 26.1617 12.6558 25.9852 12.6562 25.8069V18.7812Z" fill="black"/>
</svg>
