<svg width="36" height="36" fill="none" xmlns="http://www.w3.org/2000/svg"><g clip-path="url(#clip0_12_569)" fill="#F8E4BE" stroke="#F8E4BE" stroke-width=".5"><path d="M14.375 30.438a1.687 1.687 0 11-3.375 0 1.687 1.687 0 013.375 0zm12.938-1.688a1.687 1.687 0 100 3.375 1.687 1.687 0 000-3.375zm5.85-18.408L29.45 23.336a2.855 2.855 0 01-2.714 2.039H13.264a2.854 2.854 0 01-2.714-2.04L6.852 10.357v-.028L5.473 5.533a.577.577 0 00-.548-.408H2.563a.563.563 0 110-1.125h2.362a1.702 1.702 0 011.631 1.223l1.252 4.402h24.806a.548.548 0 01.45.225.563.563 0 01.099.492zm-1.294.408H8.13l3.502 12.277a1.702 1.702 0 001.631 1.223h13.472a1.702 1.702 0 001.631-1.223L31.87 10.75z"/><path d="M23.774 13.898a3.318 3.318 0 00-2.932-.831 5.908 5.908 0 00-3.217 1.707 5.897 5.897 0 00-1.712 3.222 3.318 3.318 0 00.831 2.927 3.151 3.151 0 002.278.876 5.663 5.663 0 003.872-1.752c1.937-1.938 2.33-4.698.88-6.149zM16.4 18.07a5.43 5.43 0 011.57-2.947 5.4 5.4 0 012.946-1.57 4.17 4.17 0 01.58-.044 2.661 2.661 0 011.929.733c.02.02.039.04.054.064a3.22 3.22 0 01-1.043.606 3.77 3.77 0 00-1.456.949 3.77 3.77 0 00-.95 1.456 3.24 3.24 0 01-.84 1.294 3.297 3.297 0 01-1.294.841 3.68 3.68 0 00-1.157.669 3.04 3.04 0 01-.339-2.051zm6.144 1.628c-1.746 1.746-4.19 2.14-5.45.88a.743.743 0 01-.06-.063c.31-.265.665-.47 1.049-.605a3.868 3.868 0 001.456-.95c.424-.406.75-.904.949-1.456a3.23 3.23 0 01.841-1.294 3.24 3.24 0 011.294-.841 3.74 3.74 0 001.151-.674c.807 1.334.33 3.444-1.23 5.003z"/></g><defs><clipPath id="clip0_12_569"><path fill="#fff" d="M0 0h36v36H0z"/></clipPath></defs></svg>