<svg width="45" height="45" fill="none" xmlns="http://www.w3.org/2000/svg"><path d="M23.813 28.688l4.875-4.875c.375-.375.562-.813.562-1.313s-.188-.938-.563-1.313l-4.921-4.921c-.344-.344-.773-.508-1.288-.493-.517.016-.947.196-1.29.54-.344.343-.516.78-.516 1.312 0 .531.172.969.515 1.313l1.688 1.687h-6.047c-.531 0-.969.18-1.312.538-.344.36-.516.806-.516 1.337 0 .531.18.976.54 1.335.359.36.804.54 1.335.54h6l-1.734 1.734c-.344.344-.508.774-.493 1.29.016.515.196.945.54 1.288.343.344.78.516 1.312.516.531 0 .969-.172 1.313-.515zM22.5 41.25c-2.594 0-5.031-.492-7.313-1.477-2.28-.984-4.265-2.32-5.953-4.007-1.687-1.688-3.023-3.672-4.006-5.953-.986-2.282-1.478-4.72-1.478-7.313 0-2.594.492-5.031 1.478-7.313.983-2.28 2.319-4.265 4.006-5.953 1.688-1.687 3.672-3.023 5.954-4.008 2.28-.984 4.718-1.476 7.312-1.476 2.594 0 5.031.492 7.313 1.476 2.28.985 4.265 2.32 5.953 4.008 1.687 1.688 3.023 3.672 4.007 5.954.984 2.28 1.477 4.718 1.477 7.312 0 2.594-.492 5.031-1.477 7.313-.984 2.28-2.32 4.265-4.007 5.953-1.688 1.687-3.672 3.023-5.953 4.007-2.282.984-4.72 1.477-7.313 1.477zm0-3.75c4.156 0 7.696-1.46 10.618-4.382C36.04 30.196 37.5 26.656 37.5 22.5c0-4.156-1.46-7.696-4.382-10.618C30.196 8.96 26.656 7.5 22.5 7.5c-4.156 0-7.695 1.46-10.616 4.382C8.96 14.804 7.5 18.344 7.5 22.5c0 4.156 1.461 7.696 4.384 10.618C14.805 36.04 18.344 37.5 22.5 37.5z" fill="#F8E4BE"/></svg>