<svg width="127" height="32" fill="none" xmlns="http://www.w3.org/2000/svg"><g clip-path="url(#clip0_12_3553)"><path d="M15.363 23.896l-5.313 3.201a1.16 1.16 0 01-.736.192 1.237 1.237 0 01-.672-.256 1.537 1.537 0 01-.448-.56 1.121 1.121 0 01-.064-.752l1.408-6.05-4.705-4.064a1.223 1.223 0 01-.4-.657 1.269 1.269 0 01.048-.72c.085-.234.213-.426.384-.575.17-.15.405-.246.704-.288l6.21-.545 2.4-5.697c.106-.256.272-.448.496-.576a1.37 1.37 0 01.688-.192c.235 0 .464.064.689.192.223.128.389.32.495.576l2.4 5.697 6.21.545c.299.042.533.138.704.288.17.149.299.341.384.576a1.23 1.23 0 01-.352 1.376l-4.705 4.065 1.408 6.049a1.12 1.12 0 01-.064.753c-.106.223-.256.41-.448.56a1.236 1.236 0 01-.672.255 1.162 1.162 0 01-.736-.192l-5.313-3.2z" fill="url(#paint0_linear_12_3553)"/><path d="M47.454 23.896l-5.313 3.201a1.16 1.16 0 01-.736.192 1.237 1.237 0 01-.672-.256 1.536 1.536 0 01-.448-.56 1.121 1.121 0 01-.064-.752l1.408-6.05-4.705-4.064a1.223 1.223 0 01-.399-.657 1.268 1.268 0 01.047-.72 1.37 1.37 0 01.384-.575c.171-.15.406-.246.705-.288l6.209-.545 2.4-5.697c.107-.256.272-.448.497-.576.223-.128.453-.192.687-.192.235 0 .465.064.69.192.223.128.388.32.495.576l2.4 5.697 6.21.545c.298.042.533.138.703.288.171.149.3.341.385.576a1.23 1.23 0 01-.352 1.376l-4.706 4.065 1.409 6.049c.064.277.042.528-.064.753-.107.223-.256.41-.448.56a1.236 1.236 0 01-.672.255 1.162 1.162 0 01-.737-.192l-5.313-3.2z" fill="url(#paint1_linear_12_3553)"/><path d="M79.546 23.896l-5.313 3.201c-.235.15-.48.213-.737.192a1.236 1.236 0 01-.672-.256 1.537 1.537 0 01-.448-.56 1.121 1.121 0 01-.064-.752l1.409-6.05-4.705-4.064a1.222 1.222 0 01-.4-.657 1.27 1.27 0 01.048-.72c.085-.234.213-.426.384-.575.17-.15.405-.246.704-.288l6.209-.545 2.4-5.697c.107-.256.273-.448.497-.576a1.37 1.37 0 01.688-.192c.234 0 .464.064.688.192.224.128.39.32.496.576l2.4 5.697 6.21.545c.298.042.533.138.704.288.17.149.298.341.384.576a1.23 1.23 0 01-.352 1.376l-4.705 4.065 1.408 6.049a1.12 1.12 0 01-.064.753c-.107.223-.256.41-.448.56a1.236 1.236 0 01-.672.255 1.162 1.162 0 01-.736-.192l-5.313-3.2z" fill="url(#paint2_linear_12_3553)"/><path d="M111.637 10.902v9.986l4.033 2.464-1.056-4.608 3.552-3.073-4.673-.416-1.856-4.353zm0 12.995l-5.313 3.2a1.16 1.16 0 01-.736.192 1.236 1.236 0 01-.672-.256 1.53 1.53 0 01-.448-.56 1.12 1.12 0 01-.064-.752l1.408-6.05-4.705-4.064a1.225 1.225 0 01-.399-.657 1.27 1.27 0 01.047-.72c.085-.234.213-.426.384-.575.171-.15.406-.246.704-.288l6.209-.545 2.401-5.697c.107-.256.272-.448.497-.576.223-.128.452-.192.687-.192.235 0 .464.064.689.192.224.128.389.32.495.576l2.401 5.697 6.209.545c.299.042.533.138.704.288.171.149.299.341.384.576a1.228 1.228 0 01-.352 1.376l-4.705 4.065 1.409 6.049c.064.277.042.528-.064.753-.107.223-.257.41-.449.56a1.236 1.236 0 01-.672.255 1.162 1.162 0 01-.736-.192l-5.313-3.2z" fill="url(#paint3_linear_12_3553)"/></g><defs><linearGradient id="paint0_linear_12_3553" x1="20.471" y1="1.49" x2="-.748" y2="9.259" gradientUnits="userSpaceOnUse"><stop stop-color="#E0A872"/><stop offset=".445" stop-color="#F8E4BE"/><stop offset=".55" stop-color="#FFF3E0"/><stop offset="1" stop-color="#E0A872"/></linearGradient><linearGradient id="paint1_linear_12_3553" x1="52.562" y1="1.49" x2="31.343" y2="9.259" gradientUnits="userSpaceOnUse"><stop stop-color="#E0A872"/><stop offset=".445" stop-color="#F8E4BE"/><stop offset=".55" stop-color="#FFF3E0"/><stop offset="1" stop-color="#E0A872"/></linearGradient><linearGradient id="paint2_linear_12_3553" x1="84.653" y1="1.49" x2="63.434" y2="9.259" gradientUnits="userSpaceOnUse"><stop stop-color="#E0A872"/><stop offset=".445" stop-color="#F8E4BE"/><stop offset=".55" stop-color="#FFF3E0"/><stop offset="1" stop-color="#E0A872"/></linearGradient><linearGradient id="paint3_linear_12_3553" x1="116.745" y1="1.49" x2="95.526" y2="9.259" gradientUnits="userSpaceOnUse"><stop stop-color="#E0A872"/><stop offset=".445" stop-color="#F8E4BE"/><stop offset=".55" stop-color="#FFF3E0"/><stop offset="1" stop-color="#E0A872"/></linearGradient><clipPath id="clip0_12_3553"><path fill="#fff" transform="translate(0 .5)" d="M0 0h127v30.726H0z"/></clipPath></defs></svg>