<svg width="42" height="35" fill="none" xmlns="http://www.w3.org/2000/svg"><g clip-path="url(#clip0_12_3573)" fill="#FFF3E0"><path d="M24.369 14.938V0h16.795v11.796c0 6.377-.933 11.006-2.784 13.854-2.441 3.824-6.298 6.703-11.57 8.654l-3.825-5c3.188-1.1 5.536-2.725 7.044-4.892 1.509-2.167 2.349-5.325 2.52-9.474h-8.18zm-22.969 0V0h16.78v11.796c0 6.378-.934 11.006-2.784 13.87-2.442 3.808-6.299 6.687-11.57 8.653L0 29.32c3.188-1.099 5.536-2.724 7.045-4.892 1.508-2.167 2.348-5.325 2.519-9.473h-8.18l.016-.016z"/></g><defs><clipPath id="clip0_12_3573"><path fill="#fff" transform="rotate(-180 20.582 17.152)" d="M0 0h41.164v34.303H0z"/></clipPath></defs></svg>